<?xml version="1.0" encoding="UTF-8" standalone="no"?>
<!-- Created with Inkscape (http://www.inkscape.org/) -->

<svg
   width="125.86611mm"
   height="165.72765mm"
   viewBox="0 0 125.86611 165.72765"
   version="1.1"
   id="svg5"
   xml:space="preserve"
   inkscape:version="1.3 (1:1.3+202307231459+0e150ed6c4)"
   sodipodi:docname="prince_tjorven.svg"
   inkscape:export-filename="prince_tjorven.png"
   inkscape:export-xdpi="300"
   inkscape:export-ydpi="300"
   xmlns:inkscape="http://www.inkscape.org/namespaces/inkscape"
   xmlns:sodipodi="http://sodipodi.sourceforge.net/DTD/sodipodi-0.dtd"
   xmlns="http://www.w3.org/2000/svg"
   xmlns:svg="http://www.w3.org/2000/svg"><sodipodi:namedview
     id="namedview7"
     pagecolor="#ffffff"
     bordercolor="#000000"
     borderopacity="0.25"
     inkscape:showpageshadow="2"
     inkscape:pageopacity="0.0"
     inkscape:pagecheckerboard="true"
     inkscape:deskcolor="#d1d1d1"
     inkscape:document-units="mm"
     showgrid="false"
     inkscape:zoom="1.2011375"
     inkscape:cx="-1.6650882"
     inkscape:cy="349.66853"
     inkscape:window-width="1920"
     inkscape:window-height="974"
     inkscape:window-x="-11"
     inkscape:window-y="-11"
     inkscape:window-maximized="1"
     inkscape:current-layer="g4646" /><defs
     id="defs2"><inkscape:path-effect
       effect="bspline"
       id="path-effect3554"
       is_visible="true"
       lpeversion="1"
       weight="33.333333"
       steps="2"
       helper_size="0"
       apply_no_weight="true"
       apply_with_weight="true"
       only_selected="false"
       uniform="false" /><inkscape:path-effect
       effect="bspline"
       id="path-effect3550"
       is_visible="true"
       lpeversion="1"
       weight="33.333333"
       steps="2"
       helper_size="0"
       apply_no_weight="true"
       apply_with_weight="true"
       only_selected="false"
       uniform="false" /><inkscape:path-effect
       effect="bspline"
       id="path-effect3546"
       is_visible="true"
       lpeversion="1"
       weight="33.333333"
       steps="2"
       helper_size="0"
       apply_no_weight="true"
       apply_with_weight="true"
       only_selected="false"
       uniform="false" /><inkscape:path-effect
       effect="bspline"
       id="path-effect3542"
       is_visible="true"
       lpeversion="1"
       weight="33.333333"
       steps="2"
       helper_size="0"
       apply_no_weight="true"
       apply_with_weight="true"
       only_selected="false"
       uniform="false" /><inkscape:path-effect
       effect="bspline"
       id="path-effect1028-4-7"
       is_visible="true"
       lpeversion="1"
       weight="33.333333"
       steps="2"
       helper_size="0"
       apply_no_weight="true"
       apply_with_weight="true"
       only_selected="false"
       uniform="false" /><inkscape:path-effect
       effect="bspline"
       id="path-effect1032-3-9"
       is_visible="true"
       lpeversion="1"
       weight="33.333333"
       steps="2"
       helper_size="0"
       apply_no_weight="true"
       apply_with_weight="true"
       only_selected="false"
       uniform="false" /><inkscape:path-effect
       effect="bspline"
       id="path-effect1096-8-2"
       is_visible="true"
       lpeversion="1"
       weight="33.333333"
       steps="2"
       helper_size="0"
       apply_no_weight="true"
       apply_with_weight="true"
       only_selected="false"
       uniform="false" /><inkscape:path-effect
       effect="bspline"
       id="path-effect1100-1-6"
       is_visible="true"
       lpeversion="1"
       weight="33.333333"
       steps="2"
       helper_size="0"
       apply_no_weight="true"
       apply_with_weight="true"
       only_selected="false"
       uniform="false" /><inkscape:path-effect
       effect="bspline"
       id="path-effect1104-9-5"
       is_visible="true"
       lpeversion="1"
       weight="33.333333"
       steps="2"
       helper_size="0"
       apply_no_weight="true"
       apply_with_weight="true"
       only_selected="false"
       uniform="false" /><inkscape:path-effect
       effect="bspline"
       id="path-effect1108-2-2"
       is_visible="true"
       lpeversion="1"
       weight="33.333333"
       steps="2"
       helper_size="0"
       apply_no_weight="true"
       apply_with_weight="true"
       only_selected="false"
       uniform="false" /><inkscape:path-effect
       effect="bspline"
       id="path-effect1112-2-9"
       is_visible="true"
       lpeversion="1"
       weight="33.333333"
       steps="2"
       helper_size="0"
       apply_no_weight="true"
       apply_with_weight="true"
       only_selected="false"
       uniform="false" /><inkscape:path-effect
       effect="bspline"
       id="path-effect1116-5-7"
       is_visible="true"
       lpeversion="1"
       weight="33.333333"
       steps="2"
       helper_size="0"
       apply_no_weight="true"
       apply_with_weight="true"
       only_selected="false"
       uniform="false" /><inkscape:path-effect
       effect="bspline"
       id="path-effect1120-6-8"
       is_visible="true"
       lpeversion="1"
       weight="33.333333"
       steps="2"
       helper_size="0"
       apply_no_weight="true"
       apply_with_weight="true"
       only_selected="false"
       uniform="false" /><inkscape:path-effect
       effect="bspline"
       id="path-effect1124-2-3"
       is_visible="true"
       lpeversion="1"
       weight="33.333333"
       steps="2"
       helper_size="0"
       apply_no_weight="true"
       apply_with_weight="true"
       only_selected="false"
       uniform="false" /><inkscape:path-effect
       effect="bspline"
       id="path-effect1128-9-0"
       is_visible="true"
       lpeversion="1"
       weight="33.333333"
       steps="2"
       helper_size="0"
       apply_no_weight="true"
       apply_with_weight="true"
       only_selected="false"
       uniform="false" /><inkscape:path-effect
       effect="bspline"
       id="path-effect1132-0-2"
       is_visible="true"
       lpeversion="1"
       weight="33.333333"
       steps="2"
       helper_size="0"
       apply_no_weight="true"
       apply_with_weight="true"
       only_selected="false"
       uniform="false" /><inkscape:path-effect
       effect="bspline"
       id="path-effect1136-9-3"
       is_visible="true"
       lpeversion="1"
       weight="33.333333"
       steps="2"
       helper_size="0"
       apply_no_weight="true"
       apply_with_weight="true"
       only_selected="false"
       uniform="false" /><inkscape:path-effect
       effect="bspline"
       id="path-effect1140-3-4"
       is_visible="true"
       lpeversion="1"
       weight="33.333333"
       steps="2"
       helper_size="0"
       apply_no_weight="true"
       apply_with_weight="true"
       only_selected="false"
       uniform="false" /><inkscape:path-effect
       effect="bspline"
       id="path-effect1148-8-4"
       is_visible="true"
       lpeversion="1"
       weight="33.333333"
       steps="2"
       helper_size="0"
       apply_no_weight="true"
       apply_with_weight="true"
       only_selected="false"
       uniform="false" /><inkscape:path-effect
       effect="bspline"
       id="path-effect1152-8-4"
       is_visible="true"
       lpeversion="1"
       weight="33.333333"
       steps="2"
       helper_size="0"
       apply_no_weight="true"
       apply_with_weight="true"
       only_selected="false"
       uniform="false" /><inkscape:path-effect
       effect="bspline"
       id="path-effect1156-4-1"
       is_visible="true"
       lpeversion="1"
       weight="33.333333"
       steps="2"
       helper_size="0"
       apply_no_weight="true"
       apply_with_weight="true"
       only_selected="false"
       uniform="false" /><inkscape:path-effect
       effect="bspline"
       id="path-effect1160-7-2"
       is_visible="true"
       lpeversion="1"
       weight="33.333333"
       steps="2"
       helper_size="0"
       apply_no_weight="true"
       apply_with_weight="true"
       only_selected="false"
       uniform="false" /><inkscape:path-effect
       effect="bspline"
       id="path-effect358-4-2"
       is_visible="true"
       lpeversion="1"
       weight="33.333333"
       steps="2"
       helper_size="0"
       apply_no_weight="true"
       apply_with_weight="true"
       only_selected="false"
       uniform="false" /><inkscape:path-effect
       effect="bspline"
       id="path-effect1024-3-5"
       is_visible="true"
       lpeversion="1"
       weight="33.333333"
       steps="2"
       helper_size="0"
       apply_no_weight="true"
       apply_with_weight="true"
       only_selected="false"
       uniform="false" /><inkscape:path-effect
       effect="bspline"
       id="path-effect1164-6-1"
       is_visible="true"
       lpeversion="1"
       weight="33.333333"
       steps="2"
       helper_size="0"
       apply_no_weight="true"
       apply_with_weight="true"
       only_selected="false"
       uniform="false" /><inkscape:path-effect
       effect="bspline"
       id="path-effect1168-4-6"
       is_visible="true"
       lpeversion="1"
       weight="33.333333"
       steps="2"
       helper_size="0"
       apply_no_weight="true"
       apply_with_weight="true"
       only_selected="false"
       uniform="false" /><inkscape:path-effect
       effect="bspline"
       id="path-effect1172-5-3"
       is_visible="true"
       lpeversion="1"
       weight="33.333333"
       steps="2"
       helper_size="0"
       apply_no_weight="true"
       apply_with_weight="true"
       only_selected="false"
       uniform="false" /><inkscape:path-effect
       effect="bspline"
       id="path-effect1176-2-0"
       is_visible="true"
       lpeversion="1"
       weight="33.333333"
       steps="2"
       helper_size="0"
       apply_no_weight="true"
       apply_with_weight="true"
       only_selected="false"
       uniform="false" /><inkscape:path-effect
       effect="bspline"
       id="path-effect1180-4-3"
       is_visible="true"
       lpeversion="1"
       weight="33.333333"
       steps="2"
       helper_size="0"
       apply_no_weight="true"
       apply_with_weight="true"
       only_selected="false"
       uniform="false" /><inkscape:path-effect
       effect="bspline"
       id="path-effect1184-9-2"
       is_visible="true"
       lpeversion="1"
       weight="33.333333"
       steps="2"
       helper_size="0"
       apply_no_weight="true"
       apply_with_weight="true"
       only_selected="false"
       uniform="false" /><inkscape:path-effect
       effect="bspline"
       id="path-effect1188-7-2"
       is_visible="true"
       lpeversion="1"
       weight="33.333333"
       steps="2"
       helper_size="0"
       apply_no_weight="true"
       apply_with_weight="true"
       only_selected="false"
       uniform="false" /><inkscape:path-effect
       effect="bspline"
       id="path-effect1192-4-2"
       is_visible="true"
       lpeversion="1"
       weight="33.333333"
       steps="2"
       helper_size="0"
       apply_no_weight="true"
       apply_with_weight="true"
       only_selected="false"
       uniform="false" /><inkscape:path-effect
       effect="bspline"
       id="path-effect1196-9-9"
       is_visible="true"
       lpeversion="1"
       weight="33.333333"
       steps="2"
       helper_size="0"
       apply_no_weight="true"
       apply_with_weight="true"
       only_selected="false"
       uniform="false" /><inkscape:path-effect
       effect="bspline"
       id="path-effect1276-7-2"
       is_visible="true"
       lpeversion="1"
       weight="33.333333"
       steps="2"
       helper_size="0"
       apply_no_weight="true"
       apply_with_weight="true"
       only_selected="false"
       uniform="false" /><inkscape:path-effect
       effect="bspline"
       id="path-effect1276-0-0-8"
       is_visible="true"
       lpeversion="1"
       weight="33.333333"
       steps="2"
       helper_size="0"
       apply_no_weight="true"
       apply_with_weight="true"
       only_selected="false"
       uniform="false" /><inkscape:path-effect
       effect="bspline"
       id="path-effect1284-2-8"
       is_visible="true"
       lpeversion="1"
       weight="33.333333"
       steps="2"
       helper_size="0"
       apply_no_weight="true"
       apply_with_weight="true"
       only_selected="false"
       uniform="false" /><inkscape:path-effect
       effect="bspline"
       id="path-effect1288-3-5"
       is_visible="true"
       lpeversion="1"
       weight="33.333333"
       steps="2"
       helper_size="0"
       apply_no_weight="true"
       apply_with_weight="true"
       only_selected="false"
       uniform="false" /><inkscape:path-effect
       effect="bspline"
       id="path-effect1292-6-9"
       is_visible="true"
       lpeversion="1"
       weight="33.333333"
       steps="2"
       helper_size="0"
       apply_no_weight="true"
       apply_with_weight="true"
       only_selected="false"
       uniform="false" /><inkscape:path-effect
       effect="bspline"
       id="path-effect1296-1-0"
       is_visible="true"
       lpeversion="1"
       weight="33.333333"
       steps="2"
       helper_size="0"
       apply_no_weight="true"
       apply_with_weight="true"
       only_selected="false"
       uniform="false" /><inkscape:path-effect
       effect="bspline"
       id="path-effect1300-1-4"
       is_visible="true"
       lpeversion="1"
       weight="33.333333"
       steps="2"
       helper_size="0"
       apply_no_weight="true"
       apply_with_weight="true"
       only_selected="false"
       uniform="false" /><inkscape:path-effect
       effect="bspline"
       id="path-effect1304-9-0"
       is_visible="true"
       lpeversion="1"
       weight="33.333333"
       steps="2"
       helper_size="0"
       apply_no_weight="true"
       apply_with_weight="true"
       only_selected="false"
       uniform="false" /><inkscape:path-effect
       effect="bspline"
       id="path-effect1308-0-9"
       is_visible="true"
       lpeversion="1"
       weight="33.333333"
       steps="2"
       helper_size="0"
       apply_no_weight="true"
       apply_with_weight="true"
       only_selected="false"
       uniform="false" /><inkscape:path-effect
       effect="bspline"
       id="path-effect1312-9-2"
       is_visible="true"
       lpeversion="1"
       weight="33.333333"
       steps="2"
       helper_size="0"
       apply_no_weight="true"
       apply_with_weight="true"
       only_selected="false"
       uniform="false" /><inkscape:path-effect
       effect="bspline"
       id="path-effect1316-0-8"
       is_visible="true"
       lpeversion="1"
       weight="33.333333"
       steps="2"
       helper_size="0"
       apply_no_weight="true"
       apply_with_weight="true"
       only_selected="false"
       uniform="false" /></defs><g
     inkscape:label="Layer 1"
     inkscape:groupmode="layer"
     id="layer1"
     transform="translate(-42.754491,-68.329527)"><g
       id="g4646"><path
         style="opacity:1;fill:#f9f9f9;stroke:none;stroke-width:3.96875"
         d="m 60.733032,85.777364 c -0.204987,0.179343 -0.41823,0.349667 -0.614961,0.53803 -0.186187,0.178267 -0.402389,1.314103 -0.463719,1.619409 -0.141435,0.704081 -0.179577,1.385578 -0.257099,2.097551 -0.05902,0.542041 -0.153872,1.061837 -0.178088,1.612198 -0.0315,0.715889 0.103396,1.466608 0,2.175934 -0.06894,0.472977 -0.169108,0.931319 -0.206933,1.412476 -0.03045,0.38737 -0.02077,0.792524 -0.0787,1.177326 -0.150336,0.998577 -0.465155,1.970291 -0.556212,2.982031 -0.06353,0.705891 0.123659,1.341631 0.228254,2.026071 0.14644,0.95827 0.208181,1.91433 0.470616,2.85348 0.101188,0.36212 0.595701,2.86712 0.263997,3.13191 -0.477133,0.38086 -1.062292,-0.53001 -1.362624,-0.77757 -0.29679,-0.24464 -0.743029,-0.33277 -1.091416,-0.47783 -0.625809,-0.26056 -1.252129,-0.58106 -1.933572,-0.68507 -0.394029,-0.0601 -0.796843,-0.0505 -1.177011,0.0571 -0.160165,0.0453 -0.394343,-0.0675 -0.563736,-0.064 -0.4518,0.01 -0.960187,0.10001 -1.383945,0.22825 -0.333592,0.10096 -1.081262,-0.0547 -1.291451,0.35649 -0.01955,0.0383 0.07491,0.0432 0.107229,0.0715 0.306363,0.26821 0.600917,0.61805 0.877271,0.92022 0.563164,0.61577 1.22363,1.12313 1.862086,1.66237 0.190943,0.16127 0.449844,0.24982 0.649332,0.39944 0.495604,0.3717 1.154677,1.14943 1.598088,1.61941 0.365638,0.38755 0.67091,0.75556 0.856265,1.25571 0.135859,0.36659 0.42829,0.86923 0.327958,1.28424 -0.03651,0.15101 -0.203221,0.25677 -0.292528,0.3637 -0.126186,0.15109 -0.241303,0.30481 -0.449296,0.3568 -0.63277,0.1582 -1.069241,-0.17086 -1.669576,-0.10001 -0.136717,0.0161 -1.156278,0.24206 -1.219965,0.2712 -0.263212,0.12043 -0.532892,0.29604 -0.79199,0.39945 -0.175265,0.0699 -0.439731,-0.0299 -0.591954,0.0429 -0.05881,0.0281 -0.01209,0.19898 -0.08559,0.22825 -0.09103,0.0362 -0.204555,-0.0961 -0.285318,-0.0643 -0.350869,0.1385 -0.689561,0.35316 -1.020243,0.52799 -0.546887,0.28914 -1.100835,0.5457 -1.591191,0.92744 -0.174174,0.1356 -0.309877,0.32733 -0.492251,0.4493 -0.53347,0.35676 -0.768018,0.91057 -1.127159,1.41968 -0.399757,0.56669 -0.852117,1.12639 -1.162902,1.74796 -0.07887,0.15775 -0.115109,0.33274 -0.19251,0.49225 -0.139026,0.28651 -0.320247,0.55835 -0.44961,0.84906 -0.200734,0.4511 -0.319975,0.9451 -0.534891,1.39115 -0.135006,0.2802 -0.367619,0.5239 -0.513884,0.8061 -0.186638,0.36009 -0.29299,0.76717 -0.427976,1.14848 -0.09008,0.25446 -0.117229,0.54942 -0.17119,0.81331 -0.278206,1.36053 -0.302663,2.64729 -0.185613,4.0236 0.02582,0.30362 0.344593,2.36594 0.478142,2.43272 0.03846,0.0192 0.01131,-0.0853 0.01411,-0.12824 0.009,-0.13867 0.03813,-0.27533 0.05016,-0.41386 0.04999,-0.57513 0.140678,-1.112 0.256786,-1.67648 0.276788,-1.34564 0.673883,-2.71049 1.11305,-4.00949 0.129525,-0.38312 0.377906,-1.64082 0.627697,-1.89061 0.926855,-0.92686 1.920934,-1.94376 3.22471,-2.3186 0.08727,-0.0251 0.288545,0.16525 0.370912,0.18562 0.149721,0.037 0.36144,-0.003 0.513884,-0.0141 0.959958,-0.07 1.946388,-0.25815 2.910547,-0.0856 1.17028,0.20944 1.861748,0.74403 2.889541,1.22686 0.399842,0.18784 0.844627,0.32123 1.227177,0.54211 0.220169,0.12711 0.376727,0.34443 0.534891,0.52799 0.129137,0.14987 0.431614,0.28528 0.364014,0.32827 -0.147214,0.0936 -0.386767,0.10625 -0.549314,0.1784 -0.897796,0.39853 -1.822578,0.71596 -2.675395,1.23408 -0.252336,0.1533 -0.481629,0.35665 -0.727716,0.52078 -0.180709,0.12052 -0.417426,0.19306 -0.577845,0.33548 -0.374304,0.33231 -0.623705,0.82159 -1.006135,1.15569 -0.08501,0.0743 -0.186308,0.0843 -0.285317,0.13545 -0.267092,0.1379 -0.678888,0.40061 -0.849053,0.65623 -0.196672,0.29544 -0.294521,0.68529 -0.456507,0.99892 -0.166452,0.32228 -0.38431,0.61818 -0.520782,0.95597 -0.124526,0.30823 -0.133049,0.5845 -0.206934,0.90612 -0.07487,0.32591 -0.180533,0.646 -0.263996,0.97008 -0.319757,1.24159 -0.662043,2.8717 -0.727715,4.13803 -0.05113,0.98595 -0.02853,1.98723 -0.02853,2.97483 0,0.66914 -0.04482,1.38012 0.05706,2.04048 0.06863,0.44485 0.235462,0.88054 0.335483,1.31967 0.08928,0.39199 0.183789,0.79703 0.313849,1.17701 0.039,0.11396 0.05855,0.21513 0.07838,0.33548 0.0035,0.0213 0.02246,0.0795 0.0072,0.0643 -0.274245,-0.27424 -0.228254,-2.13931 -0.228254,-2.63275 0,-0.55662 -0.01946,-1.10711 -0.06427,-1.66205 -0.03267,-0.40453 -0.148336,-0.78066 -0.12855,-1.19144 0.07162,-1.4869 0.559065,-1.95252 1.041878,-3.26735 0.356115,-0.9698 0.569609,-1.94126 1.148479,-2.81084 0.505956,-0.76005 1.075459,-1.70992 2.054596,-1.86209 0.06598,-0.0103 0.244956,-0.0519 0.306951,-0.0144 0.0016,0.001 0.02693,0.42622 0.04985,0.55653 0.06085,0.34587 -0.01908,0.6455 -0.03574,0.99171 -0.03619,0.75204 -0.08295,1.49812 -0.221043,2.24021 -0.06111,0.32838 -0.199533,0.64425 -0.256785,0.97008 -0.168108,0.95673 -0.421026,1.89372 -0.549314,2.86069 -0.127327,0.95973 -0.05145,1.93736 -0.17119,2.89676 -0.06691,0.53608 -0.240077,1.05232 -0.306951,1.59087 -0.112171,0.90333 -0.110406,1.80975 -0.08559,2.71804 0.01593,0.58323 -0.03682,1.16524 0,1.74796 0.01955,0.30944 0.242079,2.36831 0.385335,2.47536 0.340165,0.25419 0.663271,-0.53173 0.973642,-0.82155 0.397775,-0.85429 0.94159,-1.62256 1.437766,-2.41819 0.09677,-0.15517 0.135896,-0.34502 0.235465,-0.49915 0.383732,-0.59402 0.899683,-1.09127 1.269817,-1.69811 0.473646,-0.77654 0.923002,-1.56801 1.498385,-2.27564 0.856711,-1.0536 1.871977,-1.97229 2.718037,-3.03219 0.05227,-0.0655 -0.14103,0.0909 -0.206933,0.14265 -0.187832,0.14744 -0.372889,0.30172 -0.542103,0.47093 -0.542831,0.54284 -1.149444,1.0011 -1.705318,1.52661 -0.56159,0.53091 -0.973226,1.25793 -1.405264,1.89061 -0.239495,0.35072 -0.506927,0.70861 -0.77067,1.04157 -0.119659,0.15106 -0.289381,0.29447 -0.392233,0.45651 -0.481594,0.75873 -0.93765,1.51479 -1.348514,2.31169 -0.270881,0.52539 -0.407221,1.12325 -0.620487,1.67647 -0.05271,0.13672 -0.154585,0.26032 -0.167948,0.40624 -0.03368,0.36771 0.102781,0.60353 0.04661,0.99213 -0.105707,0.7313 -0.313506,1.47277 -0.335482,2.21136 -0.007,0.23449 0.02223,0.48835 0.04295,0.71361 0.04672,0.50788 -0.01347,1.0482 -0.03574,1.55514 -0.01816,0.41331 0.0066,0.82824 -0.02132,1.24128 -0.02869,0.42383 -0.05844,0.86484 -0.128549,1.28424 -0.03461,0.20704 -0.17103,0.37452 -0.213831,0.58506 -0.241849,1.18963 -0.454313,2.3675 -0.77067,3.53856 -0.07676,0.28416 -0.198471,0.55 -0.292528,0.82742 -0.191773,0.56562 -0.302343,1.21447 -0.399444,1.80502 -0.09228,0.5612 -0.06855,1.13143 -0.100018,1.69779 -0.02411,0.43396 -0.09949,0.85858 -0.128235,1.29145 -0.03954,0.59546 -0.0016,1.20195 0.0072,1.79781 0.01175,0.79016 -0.0091,1.60394 0.05706,2.38977 0.02157,0.25606 0.0069,0.52031 0.02132,0.77757 0.0044,0.0782 0.01268,0.15155 0.02132,0.22856 0.0021,0.0189 0,0.0761 0,0.0571 0,-0.58001 0.02946,-1.16051 0.01442,-1.74075 -0.02065,-0.79673 -0.112978,-1.58477 -0.09281,-2.38287 0.07263,-2.87346 0.809728,-6.8057 1.826343,-9.50262 0.403711,-1.07099 1.053937,-2.07284 1.726638,-2.98925 0.348874,-0.47526 0.629066,-1.00192 1.027142,-1.44101 0.673545,-0.74294 1.140867,-1.66705 1.90504,-2.33301 0.462786,-0.40331 0.989108,-0.51576 1.512493,-0.79199 0.30015,-0.15841 0.651867,-0.32715 0.920226,-0.52768 0.0067,-0.005 0.124128,0.10248 0.135448,0.10691 0.11635,0.0456 0.270194,0.0941 0.364014,0.17841 0.59673,0.53626 0.0781,1.6948 -0.03574,2.29695 -0.284271,1.50365 -0.611391,3.00222 -0.884796,4.50895 -0.08683,0.47851 -0.100657,0.9647 -0.20662,1.44101 -0.08069,0.36272 -0.220367,0.71389 -0.29974,1.07731 -0.183329,0.83939 -0.326641,1.74714 -0.392546,2.60391 -0.120374,1.56486 -0.392232,3.12934 -0.392232,4.70146 0,0.78449 0.06579,1.59292 -0.01442,2.37566 -0.0258,0.25174 -0.02132,0.51019 -0.02132,0.76345 v 0.2709 c 0,0.0214 -0.0052,0.085 0,0.0643 0.164307,-0.65008 0.242319,-1.30129 0.349591,-1.96179 0.123328,-0.75935 0.310072,-1.50616 0.485039,-2.25431 0.173102,-0.74019 0.287845,-1.505 0.527994,-2.2261 0.372672,-1.11904 0.734797,-1.69629 1.426898,-2.61113 0.201701,-0.26661 0.337602,-0.42061 0.442398,-0.7205 0.0463,-0.1325 0.104363,-0.21697 0.178402,-0.33517 4.87e-4,-7.8e-4 0.03543,-0.0518 0.03543,-0.043 0,0.0996 -0.153444,0.83494 -0.09249,0.83494 0.215837,0 0.442751,0.78139 0.477827,0.97729 0.368598,2.05858 1.09098,4.02297 1.576769,6.05687 0.21817,0.91344 0.434833,1.84171 0.592268,2.76789 0.09684,0.56971 0.140515,1.14357 0.242363,1.71222 0.245441,1.37038 0.509894,2.74658 0.96318,4.06655 0.196483,0.57216 0.700349,1.30111 0.977289,1.86209 0.620702,1.2573 1.153467,2.57247 1.641043,3.88815 0.387729,1.04624 0.689308,2.07845 1.198645,3.08173 0.03267,0.0643 0.18451,0.47259 0.249574,0.49225 0.125645,0.038 0.253385,0.0686 0.836224,0.90429 1.258004,1.72657 1.211597,0.99444 1.963656,1.96047 0.552982,0.71032 0.902494,1.56736 1.376736,2.32581 0.377102,0.6031 0.86106,1.15443 1.28424,1.72632 0.612947,0.82835 1.111908,1.768 1.797809,2.53964 0.431072,0.48495 0.976265,0.87375 1.462643,1.29866 0.231243,0.20202 0.407014,0.53287 0.634907,0.75625 0.36148,0.35432 0.767866,0.65384 1.148795,0.9845 0.130249,0.11306 0.217776,0.28223 0.342379,0.40665 0.546295,0.5455 1.180031,0.99412 1.754856,1.50528 0.823069,0.73192 1.639906,1.49186 2.4114,2.28286 0.46447,0.4762 0.864452,1.01408 1.305562,1.51249 0.538121,0.60802 1.081813,1.23546 1.569556,1.8834 0.214469,0.28492 0.347332,0.63772 0.57816,0.92744 0.341966,0.42922 0.721164,0.82259 1.112737,1.19834 0.549539,0.52732 1.034706,1.15418 1.562658,1.70531 0.640527,0.66866 1.381636,1.28268 2.111661,1.85488 0.396184,0.31053 0.809696,0.58657 1.177009,0.93433 0.153448,0.14528 0.258982,0.34059 0.399759,0.49946 0.3951,0.44589 0.773991,0.90987 1.17701,1.34852 0.32566,0.35445 0.345305,0.38092 0.656542,0.64901 0.284806,0.24533 0.715566,0.48829 0.927439,0.80611 0.491111,0.73666 0.915067,1.53172 1.433795,2.24742 0.767123,1.0584 1.544592,2.13116 2.061812,3.33883 0.37053,0.86519 0.69198,1.77299 1.12747,2.60391 0.25378,0.48421 0.47436,0.98524 0.7274,1.46954 0.0795,0.15211 0.20146,0.29059 0.27121,0.4424 0.1595,0.34715 0.20531,0.80368 0.30695,1.1698 0.10482,0.37757 0.28073,0.73525 0.37812,1.11305 0.0729,0.28264 0.31081,1.24865 0.54211,1.32688 0.0906,0.0306 0.48849,-1.11389 0.5421,-1.24129 0.29168,-0.69313 0.47127,-1.42893 0.73492,-2.13298 0.0648,-0.17301 0.2246,-0.34189 0.31385,-0.50667 0.37369,-0.68993 0.81415,-1.32671 1.20586,-2.00474 0.29366,-0.50832 0.37563,-1.11109 0.74183,-1.58367 0.51722,-0.66748 1.20418,-1.13507 1.86929,-1.64073 0.31899,-0.24252 0.55032,-0.5883 0.85595,-0.84905 0.29066,-0.24798 0.60184,-0.47897 0.89891,-0.72051 0.76396,-0.62115 1.39577,-1.31722 2.36876,-1.59087 0.17222,-0.0484 0.43593,-0.1557 0.62769,-0.10723 0.0722,0.0182 0.0621,0.28339 0.0643,0.30695 0.0656,0.72146 0.17229,1.37028 0.42797,2.05459 0.32918,0.88104 0.47241,1.80409 0.84185,2.6754 0.22733,0.53618 0.49791,1.07862 0.82052,1.56235 0.2025,0.30363 0.46867,0.57701 0.64212,0.8989 0.36866,0.68416 0.66645,1.36774 1.09863,2.01885 0.16334,0.24609 0.27937,0.51404 0.47814,0.74183 0.24276,0.2782 0.57612,0.52006 0.79199,0.81331 0.062,0.0842 0.21867,0.37447 0.33516,0.41387 0.0875,0.0296 -0.0359,-0.18129 -0.0571,-0.27121 -0.0662,-0.28126 -0.14081,-0.56066 -0.20693,-0.84184 -0.11981,-0.50953 -0.18186,-1.04199 -0.24236,-1.56235 -0.0848,-0.72889 0.0935,-1.50658 0.13544,-2.233 0.0327,-0.56652 -0.0229,-1.13791 0,-1.705 0.0283,-0.69972 0.16187,-1.46767 0.32106,-2.1474 0.24119,-1.02981 0.36406,-2.00456 0.86316,-2.96072 0.4701,-0.90058 1.21339,-1.63823 1.73354,-2.50389 0.13082,-0.21771 0.20686,-0.48136 0.32827,-0.7064 0.21351,-0.39572 0.45333,-0.78674 0.7064,-1.15568 0.41657,-0.60731 0.99568,-1.10132 1.46954,-1.66237 0.18199,-0.21548 0.3446,-0.44724 0.5352,-0.65623 0.24797,-0.27189 0.55608,-0.50549 0.78478,-0.79199 0.21458,-0.26881 0.40043,-0.55212 0.64212,-0.79888 0.81785,-0.83504 1.83235,-1.46741 2.62523,-2.3186 0.58508,-0.62811 1.25165,-1.17509 1.82666,-1.81223 0.62168,-0.68887 1.19944,-1.49093 1.90472,-2.09724 1.24007,-1.06605 2.56878,-2.05427 3.73828,-3.20339 0.4777,-0.46937 0.8734,-1.02375 1.31277,-1.5266 0.65536,-0.75004 1.43622,-1.42125 2.14741,-2.11887 0.46906,-0.46012 0.82832,-1.02937 1.29145,-1.49807 0.29408,-0.29762 0.63189,-0.55468 0.92023,-0.85627 0.50982,-0.53326 0.89871,-1.16371 1.41278,-1.69779 0.53523,-0.55605 1.1294,-1.04106 1.60499,-1.65515 0.52625,-0.6795 1.03634,-1.39028 1.47707,-2.13298 0.3028,-0.51029 0.54596,-1.09616 0.8989,-1.56956 0.26568,-0.35635 0.62248,-0.60465 0.92744,-0.92023 0.1754,-0.18151 0.29628,-0.40997 0.45651,-0.60669 0.5148,-0.63206 1.12899,-1.1854 1.63383,-1.82634 0.22071,-0.28021 0.35265,-1.99983 0.41121,-2.29006 0.0769,-0.38116 0.24912,-0.76752 0.41386,-1.11995 0.23471,-0.50209 0.50393,-1.53553 0.75704,-2.02823 0.49781,-0.96901 0.73721,-1.28094 0.99092,-2.35938 0.0547,-0.23229 0.15669,-0.47043 0.19251,-0.70608 0.0315,-0.20719 -0.0271,-0.42657 0.007,-0.63491 0.18642,-1.13221 0.60384,-2.23076 0.72771,-3.36737 0.0332,-0.30461 -0.007,-0.61558 -0.007,-0.92023 0,-0.36006 -0.0285,-0.71821 -0.0285,-1.0773 0,-0.002 -0.0101,-0.40946 -0.0285,-0.39945 -0.28129,0.1525 1.10085,-1.13243 0.67367,-1.19593 -0.15132,-1.18536 10e-4,-1.13216 -0.0865,-2.31658 -0.0424,-0.5708 -0.15504,-1.15619 -0.0995,-1.73152 0.0704,-0.72969 0.12787,-1.47798 0.15515,-2.20916 0.0256,-0.68697 0.11638,-1.9551 0.32201,-2.65314 0.0933,-0.31663 0.4074,-0.44768 0.55522,-0.71086 0.34077,-0.60674 0.81292,-1.17072 1.22118,-1.73152 0.14477,-0.19885 0.18693,-0.49649 0.28835,-0.72159 0.56638,-1.25709 0.40751,-2.62514 0.51082,-3.95239 0.0956,-1.2285 0.0355,-2.38909 -0.0556,-3.61917 -0.0645,-0.87098 -0.29054,-1.72954 -0.38836,-2.5863 -0.10406,-0.91133 -0.0391,-1.84136 -0.16637,-2.75316 -0.12648,-0.90599 -0.47567,-1.77197 -0.67768,-2.66436 -0.003,-0.0138 -0.21168,-0.65524 -0.12197,-0.65524 0.92212,0 2.40736,2.42407 2.66436,3.11957 0.11287,0.30545 0.20562,0.65206 0.35518,0.94357 0.33643,0.65573 0.84134,1.18932 1.23241,1.80959 0.39524,0.62687 0.7784,1.25975 1.18801,1.87642 0.0862,0.12973 0.10095,0.31441 0.16637,0.4552 0.2302,0.49539 0.56305,0.95651 0.86601,1.40951 0.13561,0.20279 0.0668,-0.44359 0.0668,-0.46593 0,-0.56719 -0.11909,-1.13247 -0.22199,-1.68761 -0.26907,-1.45158 -1.29401,-2.95255 -1.77641,-4.39589 -0.27825,-0.83255 -0.38474,-1.88487 -0.93284,-2.59801 -0.26932,-0.3504 -0.60039,-0.66186 -0.87674,-1.00993 -0.33204,-0.41822 -0.54588,-0.9255 -0.87722,-1.34365 -0.18426,-0.23252 -0.39074,-0.42833 -0.544,-0.68792 -0.28887,-0.48927 -0.50167,-1.68253 -0.92114,-2.03157 -0.57439,-0.47796 -1.22542,-0.56397 -1.87642,-0.88845 -0.65856,-0.32825 -1.13225,-0.96277 -1.8208,-1.24314 -0.66087,-0.2691 -1.41897,-0.28662 -2.09793,-0.55522 -0.35953,-0.14223 -0.4535,-0.35177 -0.69963,-0.61035 -0.57012,-0.59893 -0.64518,-0.80192 0.322,-1.11044 1.01457,-0.32363 2.16403,-0.51031 3.23081,-0.3664 0.42155,0.0569 0.82455,0.20638 1.25436,0.22248 0.98069,0.0367 1.77816,-0.33395 2.73121,0.18832 0.33011,0.1809 0.61661,0.45991 0.93236,0.66646 0.38107,0.24928 0.81994,0.4044 1.18801,0.66597 0.29734,0.2113 0.53747,0.49882 0.83234,0.71037 0.47016,0.3373 0.95782,0.65275 1.37682,1.05481 0.36409,0.34937 0.6413,0.76875 1.00993,1.12117 0.42836,0.40952 0.90705,0.76339 1.32121,1.18753 0.63948,0.65488 1.28463,1.31129 2.10963,1.72078 0.2525,0.12533 0.51977,0.23896 0.76599,0.37763 0.0858,0.0483 0.24394,0.26479 0.24394,0.16637 0,-0.73427 -0.74421,-2.14318 -1.07677,-2.80829 -0.27577,-0.55155 -0.43713,-1.16834 -0.72159,-1.71006 -0.34273,-0.65268 -0.9609,-1.10046 -1.44318,-1.6315 -0.76531,-0.84268 -1.48329,-1.82552 -2.51994,-2.3648 -0.67133,-0.34923 -2.12643,-1.10499 -2.5868,-1.64321 -0.20683,-0.24182 -0.37453,-0.54343 -0.56643,-0.79916 -0.016,-0.0213 -0.16638,-0.17904 -0.16638,-0.22199 0,-0.0593 -0.0417,0.20435 0.0112,0.17759 0.14534,-0.0735 -0.23399,-0.67152 -0.25566,-0.71037 -0.7971,-1.42923 -1.35716,-2.93912 -2.09792,-4.38515 -0.2913,-0.56864 -1.36605,-3.04408 -1.64321,-3.27472 -0.48844,-0.40643 -1.24565,-0.91486 -1.86521,-1.08799 -0.34577,-0.0966 -0.71257,-0.12199 -1.05433,-0.22199 -1.086,-0.31777 -1.95034,-0.71111 -3.09761,-0.48838 -0.4853,0.0942 -0.74965,0.22848 -1.16556,-0.0337 -0.0346,-0.0218 -0.21589,-0.12249 -0.23322,-0.16637 -0.0905,-0.22936 0.29267,-0.39703 0.43325,-0.59962 0.48642,-0.701 0.83066,-1.4418 1.17679,-2.20916 0.12429,-0.27554 0.1797,-0.56916 0.29956,-0.84356 0.47505,-1.08752 1.20866,-1.99414 1.51002,-3.25276 0.18152,-0.7581 0.26543,-1.57155 0.19955,-2.35358 -0.0355,-0.42184 -0.1342,-0.79623 -0.0776,-1.22119 0.19351,-1.45232 0.98304,-2.81249 1.75397,-4.02948 0.14515,-0.22913 0.19913,-0.50392 0.37762,-0.72159 0.56533,-0.68942 1.71323,-0.76188 1.9984,-1.898378 0.0154,-0.06129 0.0855,-0.117384 0.0663,-0.177592 -0.15855,-0.497262 -1.18949,-0.285708 -1.4544,-0.200034 -0.2958,0.09567 -0.59449,0.05537 -0.88796,0.144415 -1.05072,0.318828 -2.01562,0.996102 -2.90879,1.609549 -0.23887,0.16406 -0.45748,0.40676 -0.6328,0.63279 -0.291,0.3752 -0.0422,0.69073 -0.58116,0.79341 -1.14516,-1.58511 -1.96047,-3.384247 -2.2495,-5.329278 -0.19341,-1.301588 -0.20538,-2.630516 -0.39958,-3.92995 -0.17989,-1.203638 -0.20591,-2.44769 -0.42203,-3.64112 -0.11945,-0.659638 -0.31188,-1.297626 -0.35518,-1.975952 -0.0379,-0.593186 0.0272,-1.19394 0,-1.787628 -0.0229,-0.499361 -0.0805,-1.029836 -0.0332,-1.531973 0.0334,-0.354709 0.17759,-0.725035 0.17759,-1.076772 0,-0.02372 -0.0276,0.03884 -0.0444,0.05562 -0.0776,0.07755 -0.17388,0.126941 -0.25566,0.199547 -0.22497,0.19973 -0.57497,0.273621 -0.866,0.322007 -0.35942,0.05976 -0.72972,0.07192 -1.08799,0.144416 -1.2706,0.2571 -2.62247,1.775955 -3.59673,2.575568 -0.46136,0.378666 -0.98358,0.709521 -1.37682,1.165569 -0.41203,0.477843 -0.75849,1.011457 -1.19875,1.46562 -0.96372,0.994171 -2.17401,1.730039 -3.15274,2.708762 -0.21115,0.211148 -0.31449,0.568855 -0.48886,0.810385 -0.42981,0.59534 -0.95597,1.108879 -1.43196,1.665167 -0.56275,0.657687 -0.96929,1.470341 -1.56515,2.097925 -0.35291,0.371702 -0.7017,0.758518 -1.04359,1.143613 -0.10411,0.117258 -0.14772,0.346163 -0.27761,0.432758 -0.32053,0.213688 -0.75571,0.322946 -1.0436,0.610838 -0.50687,0.506868 -0.84241,1.222729 -1.26558,1.798361 -0.74974,1.019847 -1.64129,1.835737 -2.60875,2.630707 -0.0708,0.0582 -0.33016,0.43685 -0.43325,0.4108 -0.15355,-0.0388 0.25227,-1.23529 0.28883,-1.38756 0.40987,-1.707043 0.63937,-3.443837 1.088,-5.139918 0.10414,-0.393729 0.21914,-0.797343 0.33274,-1.188011 0.0311,-0.106805 0.20051,-0.321519 0.0893,-0.321519 -0.60032,0 -0.9117,0.790913 -1.46562,0.943578 -0.34516,0.09513 -0.78932,0.209538 -1.12117,0.255166 -0.0322,0.0044 -0.0118,-0.09628 -0.0112,-0.100017 -0.16279,0.0148 -0.33041,0.0024 -0.48838,0.0444 -0.48733,0.129691 -0.94412,0.39437 -1.43244,0.522042 -1.08931,0.2848 -3.56723,-0.773086 -4.47395,-1.376825 -0.26319,-0.175245 -1.01696,-1.247377 -1.20996,-1.531973 -0.23555,-0.347318 -0.28037,-0.773379 -0.43276,-1.154346 -0.4102,-1.025495 -0.78756,-2.080781 -0.9104,-3.186407 -0.0164,-0.147688 -0.0396,-0.810729 -0.17759,-0.876737 -0.0937,-0.04481 -0.0161,0.207114 -0.0225,0.310785 -0.023,0.375774 -0.10242,0.706578 -0.22199,1.065551 -0.23945,0.718908 -0.70511,1.460419 -1.19874,2.031572 -0.2245,0.259755 -0.55674,0.458605 -0.82161,0.677191 -0.71716,0.591855 -1.15023,0.737403 -2.02035,0.921623 -0.23656,0.05008 -0.60126,0.115297 -0.84405,0.03318 -0.11194,-0.03786 -0.76064,-0.890047 -0.97675,-1.076772 -0.52434,-0.453024 -0.73883,-0.984191 -1.11044,-1.565149 -0.34809,-0.544196 -0.73013,-1.05207 -1.02115,-1.631991 -0.20005,-0.398627 -0.22926,-0.872839 -0.4108,-1.288028 -0.22861,-0.522836 -0.56367,-1.039189 -0.74404,-1.576371 -0.15753,-0.469179 -0.28099,-0.962856 -0.48837,-1.420735 -0.23012,-0.508063 -0.54382,-1.064591 -0.64353,-1.620769 -0.0732,-0.408219 -0.056,-0.841364 -0.10002,-1.254364 -0.0348,-0.326111 -0.16158,-0.615548 -0.22199,-0.921623 -0.14442,-0.731746 -0.15563,-1.583816 -0.15563,-2.331136 0,-0.302219 -0.0325,-0.609985 -0.0556,-0.910402 -0.025,-0.323924 -0.0415,-0.690789 -0.0551,-0.677191 -0.0869,0.08691 0.027,0.418793 0.0444,0.51082 0.184,0.974375 0.0398,2.068932 -0.11124,3.041504 -0.15272,0.983591 -0.26459,1.998996 -0.51082,2.963929 -0.0654,0.256237 -0.20925,0.43991 -0.28834,0.67719 -0.11834,0.355011 -0.17637,0.75078 -0.34445,1.087994 -0.53042,1.064187 -0.80615,2.292536 -1.28858,3.379316 -0.30854,0.695069 -1.827071,3.081218 -2.252521,3.403812 -1.068819,0.810424 -1.987805,-0.08717 -3.064434,-0.366405 -0.484621,-0.125691 -1.502029,-0.181311 -1.875936,-0.555218 -0.357068,-0.357068 -0.506484,-1.277555 -0.67719,-1.775918 -0.08349,-0.243737 -0.626096,-1.920821 -0.677191,-1.920821 -0.01765,0 -0.163565,0.207374 -0.177592,0.22199 -0.392165,0.40863 -0.350069,0.449515 -0.443979,0.966021 -0.104897,0.576934 -0.403763,1.075693 -0.666457,1.587593 -0.241411,0.470426 -0.400584,0.968152 -0.654748,1.431955 -0.275976,0.503606 -0.747671,0.904419 -1.076772,1.376337 -0.167559,0.240273 -0.279233,0.534399 -0.488866,0.744031 -0.277752,0.277753 -0.69422,0.442063 -1.021152,0.654748 -0.940102,0.611583 -0.861601,0.642292 -1.876424,0.322007 -0.731747,-0.230944 -1.445005,-0.473369 -2.175499,-0.687924 -0.827126,-0.242937 -1.998881,-0.311383 -2.698029,-0.866004 -0.572519,-0.454168 -1.337137,-1.865845 -1.476354,-1.820804 -0.126776,0.04102 -0.01122,0.266335 -0.01122,0.399582 0,0.830566 0.0444,1.658062 0.0444,2.486773 0,0.771133 0.147022,1.618337 0.333228,2.3648 0.188089,0.754015 0.369559,1.521761 0.599616,2.264784 0.498548,1.610174 1.573322,2.936134 2.07597,4.551514 0.141512,0.45479 0.163791,0.5482 0.332741,1.04311 0.08927,0.26151 0.09119,0.25011 0.177592,0.4552 0.0097,0.023 0.03366,0.0918 0.03366,0.0668 0,-0.16154 -0.40114,-0.42852 -0.488865,-0.51082 -0.701369,-0.65801 -1.821087,-1.84412 -2.630701,-2.29796 -0.369653,-0.20721 -0.815237,-0.3678 -1.154834,-0.62157 -0.251851,-0.18819 -0.409038,-0.5118 -0.654748,-0.72159 -0.337345,-0.28803 -0.722421,-0.54852 -1.021641,-0.87722 -0.35142,-0.386046 -0.506286,-0.899848 -0.854782,-1.287539 -0.263916,-0.293544 -0.587195,-0.576233 -0.877244,-0.843528 -0.818563,-0.754348 -2.094765,-1.328889 -2.786338,-2.087192 -0.154455,-0.169359 -0.219587,-0.390163 -0.322007,-0.588394 -0.245476,-0.475116 -0.591506,-0.940159 -0.943578,-1.34316 -0.378639,-0.43341 -0.85106,-0.81467 -1.287541,-1.188011 -0.508223,-0.434707 -0.910654,-0.983196 -1.421222,-1.420735 -0.251279,-0.215337 -0.543506,-0.397372 -0.777208,-0.632792 -0.253165,-0.255027 -0.435199,-0.588265 -0.677191,-0.854783 -0.332557,-0.366263 -0.771318,-0.6105 -1.099215,-0.966021 -0.476037,-0.516143 -0.862918,-1.130278 -1.398779,-1.587593 -0.435385,-0.371566 -1.277253,-0.113635 -1.656902,-0.532975 -0.803815,-0.887849 -1.044906,-1.477407 -1.901465,-0.894953 z"
         id="path1"
         sodipodi:nodetypes="csssssssssscsccccsccsscssssccsccccsscssssssssscccssssccsscsccsssccssssssssssscssssscccssssssssscsssssccsssssssscsscssssssscsssssssssssscsssssssssscssssssssssssssssccsssssssssssssssssssssssssssccsssssssscccsssssssscscscssssssssssssssssssssssssssscscsssccsccsssssssscssssssssssssssssssssccsssssssssssssssssscsssssscssssccsssssssscsssccsscsssssssssssssscssscsscccsssssscssssscsssssccsscccccsssssssssssssssssssssssssssssssscssssssssssscc" /><path
         style="opacity:0.25;fill:#fb2929;fill-opacity:1;stroke:none;stroke-width:0.523362;stroke-linecap:round;stroke-dasharray:none;stroke-opacity:1;stop-color:#000000"
         d="m 84.15882,103.54303 c -1.197422,-4.788837 -2.139542,-8.744566 -2.093601,-8.79051 0.04594,-0.04594 0.411787,0.110138 0.812981,0.346848 1.663911,0.981734 3.878964,0.706882 5.659717,-0.702279 0.756754,-0.59884 2.648763,-3.026841 2.648763,-3.399136 0,-0.07865 0.144963,-0.489944 0.322145,-0.913992 l 0.32214,-0.770997 0.580978,1.017248 c 0.995212,1.742549 2.462038,2.716765 4.095872,2.720333 0.807045,0.0018 2.578138,-0.97607 3.254829,-1.797012 1.569836,-1.904487 2.562846,-4.616919 3.077206,-8.405429 l 0.2262,-1.354295 0.37136,1.768964 c 1.40932,6.71323 3.84144,11.012641 6.55391,10.470146 0.80775,-0.161549 2.06485,-1.293124 3.19317,-2.87432 0.91955,-1.288639 0.9636,-1.321055 1.15486,-0.849813 1.97119,4.857001 3.48196,6.369544 6.33844,6.345924 0.68565,-0.0057 1.63723,-0.149698 2.11463,-0.320064 0.53164,-0.189721 0.86801,-0.228189 0.86801,-0.09927 0,0.20973 -3.48113,15.772894 -3.54273,15.838554 -0.056,0.0596 -26.497303,0.47607 -30.227691,0.47607 h -3.554053 z"
         id="path3804"
         sodipodi:nodetypes="sssssscsssscssssssssscs" /><path
         style="fill:none;stroke:#000000;stroke-width:0.882416;stroke-linecap:round;stroke-dasharray:none;stop-color:#000000"
         d="m 127.44525,89.960065 c -0.91425,1.549684 -1.82828,3.098988 -2.97652,4.116899 -1.14824,1.01791 -2.53099,1.50483 -3.81978,1.50497 -1.28878,1.4e-4 -2.48405,-0.486777 -3.52923,-1.867278 -1.04519,-1.380502 -1.93995,-3.655039 -2.83504,-5.930417"
         id="path3540"
         sodipodi:nodetypes="ccccc"
         inkscape:original-d="m 127.44525,89.960065 c -0.91364,1.550045 -1.82766,3.099355 -2.74209,4.647919 -1.38239,0.487685 -2.76514,0.974613 -4.1483,1.460773 -1.1949,-0.486171 -2.39016,-0.973099 -3.58585,-1.460773 -0.89418,-2.273948 -1.78892,-4.548493 -2.68433,-6.823745"
         inkscape:path-effect="#path-effect3542" /><path
         style="fill:none;stroke:#000000;stroke-width:0.882416;stroke-linecap:round;stroke-dasharray:none;stop-color:#000000"
         d="m 78.649909,89.428868 c 1.430155,1.904113 2.859807,3.807555 4.289391,4.736801 1.429584,0.929245 2.859212,0.885 4.136233,0.198999 1.277022,-0.686001 2.401965,-2.013947 3.105108,-3.363869 0.703144,-1.349923 0.984375,-2.722124 1.265751,-4.095026"
         id="path3544"
         inkscape:original-d="m 78.649909,89.428868 c 1.430042,1.904198 2.85971,3.807628 4.288937,5.710304 1.430065,-0.04337 2.859689,-0.08776 4.288915,-0.132737 1.125389,-1.327264 2.250359,-2.655187 3.374909,-3.983929 0.281645,-1.371521 0.562871,-2.743723 0.843722,-4.116733"
         inkscape:path-effect="#path-effect3546" /><path
         style="fill:none;stroke:#000000;stroke-width:0.882416;stroke-linecap:round;stroke-dasharray:none;stop-color:#000000"
         d="m 103.11978,76.156167 c 0.32757,2.875679 0.65506,5.750607 1.27594,8.294767 0.62089,2.54416 1.5349,4.757416 2.40221,6.218056 0.86731,1.46064 1.6876,2.168884 2.47239,2.257173 0.78479,0.08829 1.53474,-0.442877 2.35496,-1.416591 0.82023,-0.973714 1.71081,-2.390194 2.60164,-3.807068"
         id="path3548"
         sodipodi:nodetypes="cccccc"
         inkscape:original-d="m 103.11978,76.156167 c 0.32808,2.875621 0.65557,5.750549 0.98246,8.624802 0.91445,2.214093 1.82848,4.427342 2.74208,6.639869 0.82072,0.709027 1.64101,1.41727 2.46089,2.124753 0.7504,-0.53044 1.50035,-1.061595 2.24991,-1.593557 0.89102,-1.41578 1.7816,-2.832261 2.6718,-4.24953"
         inkscape:path-effect="#path-effect3550" /><path
         style="fill:none;stroke:#000000;stroke-width:0.882416;stroke-linecap:round;stroke-dasharray:none;stop-color:#000000"
         d="m 91.587005,86.507322 c 0.750302,1.859963 1.500274,3.71911 2.555031,4.73687 1.054758,1.01776 2.414074,1.194824 3.632433,0.530947 1.218359,-0.663878 2.296431,-2.168894 3.023021,-3.961511 0.72659,-1.792618 1.10157,-3.873056 1.42337,-5.870335 0.3218,-1.997278 0.59038,-3.911187 0.85904,-5.825712"
         id="path3552"
         sodipodi:nodetypes="cccccc"
         inkscape:original-d="m 91.587005,86.507322 c 0.750384,1.85993 1.500349,3.71908 2.249939,5.577496 1.359759,0.177829 2.719076,0.354888 4.077996,0.531199 1.078511,-1.504309 2.15658,-3.009329 3.23427,-4.515114 0.37541,-2.079796 0.75037,-4.160237 1.12495,-6.241489 0.26916,-1.913307 0.53772,-3.827218 0.80574,-5.741833"
         inkscape:path-effect="#path-effect3554" /><path
         style="fill:none;stroke:#000000;stroke-width:1.49478;stroke-linecap:round;stroke-dasharray:none;stroke-opacity:1;stop-color:#000000"
         d="m 59.100188,106.98416 c -0.368997,-2.89048 -0.73803,-5.78125 -0.676566,-7.903289 0.06146,-2.122037 0.553497,-3.475138 0.894145,-5.659535 0.340647,-2.184397 0.529855,-5.200036 0.719083,-8.215989"
         id="path1026-4-8"
         sodipodi:nodetypes="cccc"
         inkscape:original-d="m 59.100188,106.98416 c -0.368784,-2.89051 -0.73781,-5.78128 -1.107101,-8.672315 0.492322,-1.352894 0.984357,-2.705994 1.476127,-4.059386 0.189499,-3.015501 0.378689,-6.031141 0.567636,-9.047112"
         inkscape:path-effect="#path-effect1028-4-7" /><path
         style="fill:none;stroke:#000000;stroke-width:1.49478;stroke-linecap:round;stroke-dasharray:none;stroke-opacity:1;stop-color:#000000"
         d="m 148.59112,100.71057 c -0.73798,-2.644432 -1.47605,-5.289183 -1.98294,-8.462364 -0.50689,-3.173181 -0.78253,-6.874611 -1.05819,-10.576392"
         id="path1030-0-3"
         sodipodi:nodetypes="ccc"
         inkscape:original-d="m 148.59112,100.71057 c -0.73778,-2.644487 -1.47586,-5.289235 -2.2142,-7.934249 -0.2754,-3.701313 -0.55102,-7.402744 -0.82693,-11.104507"
         inkscape:path-effect="#path-effect1032-3-9" /><path
         style="fill:none;stroke:#000000;stroke-width:1.49478;stroke-linecap:round;stroke-dasharray:none;stroke-opacity:1;stop-color:#000000"
         d="m 58.1776,172.48784 c -0.123006,-3.38255 -0.246022,-6.76536 0.122991,-9.25646 0.369013,-2.49109 1.230079,-4.09021 1.83801,-6.18494 0.607931,-2.09473 0.962676,-4.68506 1.31746,-7.27567"
         id="path1094-9-8"
         sodipodi:nodetypes="cccc"
         inkscape:original-d="m 58.1776,172.48784 c -0.122656,-3.38256 -0.245753,-6.76537 -0.369048,-10.14846 0.86137,-1.59892 1.722431,-3.19804 2.58325,-4.79745 0.355018,-2.59018 0.709771,-5.18051 1.064259,-7.77116"
         inkscape:path-effect="#path-effect1096-8-2" /><path
         style="fill:none;stroke:#000000;stroke-width:1.49478;stroke-linecap:round;stroke-dasharray:none;stroke-opacity:1;stop-color:#000000"
         d="m 62.698282,159.47936 c -0.93802,1.87604 -1.875981,3.75196 -2.606364,5.9278 -0.730383,2.17584 -1.253174,4.6514 -1.775933,7.12681"
         id="path1098-9-5"
         inkscape:original-d="m 62.698282,159.47936 c -0.937699,1.8762 -1.875663,3.75212 -2.813891,5.62778 -0.522545,2.47593 -1.045332,4.95149 -1.568406,7.42683"
         inkscape:path-effect="#path-effect1100-1-6" /><path
         style="fill:none;stroke:#000000;stroke-width:1.49478;stroke-linecap:round;stroke-dasharray:none;stroke-opacity:1;stop-color:#000000"
         d="m 104.30696,233.19407 c -0.73803,-4.73566 -1.4761,-9.47161 -5.689211,-15.22249 -4.213109,-5.75088 -11.901178,-12.51638 -17.221491,-17.92891 -5.320313,-5.41253 -8.272533,-9.47184 -10.917343,-14.26933 -2.64481,-4.79749 -4.981994,-10.33291 -6.214875,-14.83033 -1.232881,-4.49741 -1.361292,-7.95652 -1.489716,-11.416"
         id="path1102-3-6"
         sodipodi:nodetypes="cccccc"
         inkscape:original-d="m 104.30696,233.19407 c -0.73781,-4.73569 -1.47588,-9.47164 -2.21422,-14.20784 -7.688116,-6.76551 -15.376184,-13.53101 -23.064672,-20.29691 -2.952078,-4.05921 -5.90431,-8.11851 -8.856828,-12.17816 -2.337012,-5.53536 -4.6742,-11.07078 -7.011675,-16.60656 -0.128171,-3.45901 -0.256563,-6.91812 -0.385241,-10.37759"
         inkscape:path-effect="#path-effect1104-9-5" /><path
         style="fill:none;stroke:#000000;stroke-width:1.49478;stroke-linecap:round;stroke-dasharray:none;stroke-opacity:1;stop-color:#000000"
         d="m 106.51556,219.08817 c -0.7829,2.04423 -1.56574,4.08831 -1.93537,6.45868 -0.36962,2.37036 -0.32609,5.06676 -0.28256,7.76293"
         id="path1106-6-3"
         inkscape:original-d="m 106.51556,219.08817 c -0.78257,2.04435 -1.56541,4.08844 -2.34853,6.13226 0.0437,2.69678 0.0874,5.39317 0.1306,8.08935"
         inkscape:path-effect="#path-effect1108-2-2" /><path
         style="fill:none;stroke:#000000;stroke-width:1.49478;stroke-linecap:round;stroke-dasharray:none;stroke-opacity:1;stop-color:#000000"
         d="m 104.36604,229.08602 c 1.49929,-2.8541 2.99866,-5.70834 4.7922,-7.7444 1.79355,-2.03606 3.88107,-3.25379 5.96857,-4.4715"
         id="path1110-6-8"
         sodipodi:nodetypes="ccc"
         inkscape:original-d="m 104.36604,229.08602 c 1.4996,-2.85394 2.99898,-5.70817 4.49805,-8.56263 2.08788,-1.21752 4.17541,-2.43524 6.26272,-3.65327"
         inkscape:path-effect="#path-effect1112-2-9" /><path
         style="fill:none;stroke:#000000;stroke-width:1.49478;stroke-linecap:round;stroke-dasharray:none;stroke-opacity:1;stop-color:#000000"
         d="m 120.08482,229.00416 c -1.60894,-1.91334 -3.21811,-3.82694 -4.04458,-5.80581 -0.82647,-1.97887 -0.87,-4.02292 -0.91354,-6.06728"
         id="path1114-1-1"
         inkscape:original-d="m 120.08482,229.00416 c -1.60893,-1.91335 -3.21808,-3.82696 -4.82752,-5.74083 -0.0432,-2.04386 -0.0867,-4.08791 -0.1306,-6.13226"
         inkscape:path-effect="#path-effect1116-5-7" /><path
         style="fill:none;stroke:#000000;stroke-width:1.49478;stroke-linecap:round;stroke-dasharray:none;stroke-opacity:1;stop-color:#000000"
         d="m 152.1813,141.45644 c 1.9572,6.61097 3.9143,13.22163 3.7185,20.76736 -0.19581,7.54574 -2.54428,16.02635 -5.76264,22.26728 -3.21836,6.24093 -7.30646,10.24205 -11.59038,14.352 -4.28393,4.10996 -8.76343,8.32852 -12.00355,11.63388 -3.24012,3.30537 -5.24067,5.69733 -6.13222,8.58965 -0.89155,2.89233 -0.6741,6.28458 -0.45666,9.67661"
         id="path1118-5-5"
         inkscape:original-d="m 152.1813,141.45644 c 1.95737,6.61092 3.91446,13.22158 5.87131,19.83197 -2.34831,8.48121 -4.69679,16.96182 -7.04556,25.44234 -4.08799,4.00153 -8.17609,8.00264 -12.26452,12.00356 -4.47943,4.21899 -8.95893,8.43755 -13.43877,12.65593 -2.00038,2.39232 -4.00092,4.78429 -6.00178,7.17605 0.21774,3.39263 0.43517,6.78488 0.65237,10.17693"
         inkscape:path-effect="#path-effect1120-6-8" /><path
         style="fill:none;stroke:#000000;stroke-width:1.49478;stroke-linecap:round;stroke-dasharray:none;stroke-opacity:1;stop-color:#000000"
         d="m 44.018755,131.86663 c -0.413119,-2.82663 -0.82628,-5.65355 -0.173941,-8.43712 0.652339,-2.78358 2.370206,-5.52347 3.914249,-7.16533 1.544043,-1.64186 2.913974,-2.18549 4.349274,-2.39203 1.435301,-0.20654 2.935716,-0.0761 4.435868,0.0544"
         id="path1122-0-8"
         inkscape:original-d="m 44.018755,131.86663 c -0.412904,-2.82666 -0.826073,-5.65358 -1.239485,-8.48077 1.718196,-2.73973 3.436061,-5.47963 5.153683,-8.21983 1.370281,-0.54339 2.740209,-1.08702 4.109917,-1.63092 1.500746,0.13075 3.001162,0.26121 4.501335,0.39142"
         inkscape:path-effect="#path-effect1124-2-3" /><path
         style="fill:none;stroke:#000000;stroke-width:1.49478;stroke-linecap:round;stroke-dasharray:none;stroke-opacity:1;stop-color:#000000"
         d="m 58.305595,123.84251 c -1.80457,-1.23928 -3.609459,-2.47879 -5.534045,-2.70724 -1.924585,-0.22845 -3.968616,0.55437 -5.458297,2.52249 -1.489682,1.96813 -2.424724,5.12118 -3.35973,8.27411"
         id="path1126-6-3"
         inkscape:original-d="m 58.305595,123.84251 c -1.804607,-1.23923 -3.6095,-2.47873 -5.414635,-3.71849 -2.043874,0.78312 -4.087901,1.56595 -6.13226,2.34852 -0.934809,3.15344 -1.869861,6.30649 -2.805177,9.45933"
         inkscape:path-effect="#path-effect1128-9-0" /><path
         style="fill:none;stroke:#000000;stroke-width:1.49478;stroke-linecap:round;stroke-dasharray:none;stroke-opacity:1;stop-color:#000000"
         d="m 59.153684,107.07667 c -1.478397,-0.89139 -2.957082,-1.78295 -4.5772,-2.09293 -1.620117,-0.30999 -3.381464,-0.0382 -5.143072,0.23368"
         id="path1130-6-7"
         sodipodi:nodetypes="ccc"
         inkscape:original-d="m 59.153684,107.07667 c -1.478443,-0.89131 -2.957129,-1.78287 -4.436102,-2.67471 -1.761169,0.27209 -3.522515,0.54391 -5.28417,0.81546"
         inkscape:path-effect="#path-effect1132-0-2" /><path
         style="fill:none;stroke:#000000;stroke-width:1.49478;stroke-linecap:round;stroke-dasharray:none;stroke-opacity:1;stop-color:#000000"
         d="m 56.674692,113.60034 c -0.69573,-1.69584 -1.391586,-3.39199 -2.620142,-4.77291 -1.228555,-1.38092 -2.989925,-2.44643 -4.751625,-3.51215"
         id="path1134-5-1"
         inkscape:original-d="m 56.674692,113.60034 c -0.695608,-1.69589 -1.391459,-3.39204 -2.087575,-5.08846 -1.761169,-1.06529 -3.522537,-2.13081 -5.284192,-3.1966"
         inkscape:path-effect="#path-effect1136-9-3" /><path
         style="fill:none;stroke:#000000;stroke-width:1.49478;stroke-linecap:round;stroke-dasharray:none;stroke-opacity:1;stop-color:#000000"
         d="m 58.044664,123.71204 c -1.587276,0.5001 -3.174698,1.00025 -4.642635,2.09846 -1.467936,1.09821 -2.816137,2.79433 -3.642471,5.36045 -0.826334,2.56611 -1.130768,6.00184 -1.043725,8.57875 0.08704,2.57691 0.565442,4.29477 1.043764,6.01236"
         id="path1138-7-2"
         inkscape:original-d="m 58.044664,123.71204 c -1.587179,0.50041 -3.1746,1.00056 -4.762287,1.50045 -1.348,1.69645 -2.696199,3.39257 -4.044685,5.08846 -0.304168,3.43614 -0.608602,6.87187 -0.913322,10.30741 0.478689,1.7182 0.95709,3.43606 1.435227,5.1537"
         inkscape:path-effect="#path-effect1140-3-4" /><path
         style="fill:none;stroke:#000000;stroke-width:1.49478;stroke-linecap:round;stroke-dasharray:none;stroke-opacity:1;stop-color:#000000"
         d="m 54.856276,130.87916 c -0.953242,0.492 -1.906558,0.98403 -2.690852,1.82983 -0.784293,0.8458 -1.399335,2.04513 -1.768349,4.25946 -0.369015,2.21432 -0.492021,5.44331 -0.61502,8.67211"
         id="path1146-3-4"
         sodipodi:nodetypes="cccc"
         inkscape:original-d="m 54.856276,130.87916 c -0.953075,0.49232 -1.906393,0.98435 -2.86002,1.47614 -0.614801,1.19966 -1.229845,2.39899 -1.845175,3.59809 -0.122656,3.22939 -0.245753,6.45838 -0.369026,9.68717"
         inkscape:path-effect="#path-effect1148-8-4" /><path
         style="fill:none;stroke:#000000;stroke-width:1.49478;stroke-linecap:round;stroke-dasharray:none;stroke-opacity:1;stop-color:#000000"
         d="m 62.606025,137.33727 c -2.183425,1.66063 -4.366879,3.32129 -5.873827,5.15119 -1.506948,1.8299 -2.337258,3.82879 -2.767767,5.92007 -0.43051,2.09129 -0.461246,4.27471 -0.845679,6.50426 -0.384432,2.22956 -1.122487,4.50523 -1.460754,7.73438 -0.338267,3.22914 -0.276793,7.41147 -0.215322,11.59359"
         id="path1150-5-9"
         inkscape:original-d="m 62.606025,137.33727 c -2.183206,1.66092 -4.366656,3.32158 -6.55037,4.98197 -0.830088,1.99925 -1.660397,3.99814 -2.490993,5.99682 -0.03044,2.18376 -0.06133,4.36718 -0.09221,6.55037 -0.737809,2.27602 -1.475884,4.55169 -2.214201,6.82714 0.06177,4.18274 0.123317,8.36506 0.184425,12.54719"
         inkscape:path-effect="#path-effect1152-8-4" /><path
         style="fill:none;stroke:#000000;stroke-width:1.49478;stroke-linecap:round;stroke-dasharray:none;stroke-opacity:1;stop-color:#000000"
         d="m 61.498902,149.42317 c -1.014623,0.15373 -2.029467,0.30749 -2.875317,1.18404 -0.845849,0.87656 -1.522394,2.47567 -2.137454,3.72115 -0.615061,1.24547 -1.1686,2.13728 -1.829801,3.62886 -0.6612,1.49158 -1.430001,3.58273 -1.975852,6.38902 -0.545851,2.80628 -0.86875,6.32742 -1.191633,9.84839"
         id="path1154-4-0"
         sodipodi:nodetypes="cccccc"
         inkscape:original-d="m 61.498902,149.42317 c -1.014579,0.15402 -2.029423,0.30778 -3.044532,0.46128 -0.676306,1.59946 -1.352854,3.19857 -2.029689,4.79746 -0.553296,0.89212 -1.106836,1.78393 -1.660662,2.6755 -0.768562,2.09151 -1.537366,4.18266 -2.306458,6.2736 -0.322655,3.52154 -0.645553,7.04268 -0.968716,10.56362"
         inkscape:path-effect="#path-effect1156-4-1" /><path
         style="fill:none;stroke:#000000;stroke-width:1.49478;stroke-linecap:round;stroke-dasharray:none;stroke-opacity:1;stop-color:#000000"
         d="m 54.948532,130.78691 c -1.014896,3.04469 -2.029738,6.08922 -2.567876,8.98008 -0.538138,2.89086 -0.599612,5.6278 -0.39965,7.84206 0.199961,2.21425 0.66125,3.90563 1.122461,5.59672"
         id="path1158-8-1"
         inkscape:original-d="m 54.948532,130.78691 c -1.014579,3.0448 -2.029423,6.08933 -3.044532,9.13361 -0.06133,2.73733 -0.122656,5.47428 -0.184425,8.21102 0.461569,1.69171 0.922852,3.38309 1.383892,5.07423"
         inkscape:path-effect="#path-effect1160-7-2" /><path
         style="fill:none;stroke:#000000;stroke-width:1.49569;stroke-linecap:round;stroke-dasharray:none;stroke-opacity:1;stop-color:#000000"
         d="m 124.79105,103.37643 c 2.96453,-4.863258 5.92897,-9.726355 9.27634,-13.34458 3.34738,-3.618225 7.0773,-5.99113 10.80715,-8.363993"
         id="path356-5-6"
         sodipodi:nodetypes="ccc"
         inkscape:original-d="m 124.79105,103.37643 c 0,0 5.92966,-9.725933 8.8936,-14.589775 3.73055,-2.372348 7.46047,-4.745254 11.18989,-7.118798"
         inkscape:path-effect="#path-effect358-4-2" /><path
         style="fill:none;stroke:#000000;stroke-width:1.49569;stroke-linecap:round;stroke-dasharray:none;stroke-opacity:1;stop-color:#000000"
         d="M 81.011716,105.31146 C 79.13145,102.44203 77.319221,99.676429 75.25646,97.289045 73.193699,94.90166 70.74943,92.879185 68.794391,91.349232 66.839352,89.819279 63.510357,87.327253 60.733032,85.248197"
         id="path1022-6-4"
         sodipodi:nodetypes="cccc"
         inkscape:original-d="m 81.011716,105.31146 c 0,0 -3.692358,-5.635121 -5.640798,-8.608292 -2.177272,-1.801443 -4.621542,-3.823918 -6.306801,-5.21847 -2.224835,-1.665326 -5.553792,-4.157402 -8.331085,-6.236501"
         inkscape:path-effect="#path-effect1024-3-5" /><path
         style="fill:none;stroke:#000000;stroke-width:1.49569;stroke-linecap:round;stroke-dasharray:none;stroke-opacity:1;stop-color:#000000"
         d="m 92.221065,115.3797 c 2.368187,-0.31966 4.736105,-0.63928 7.548207,-0.77733 2.812098,-0.13806 6.068058,-0.0946 8.543728,-0.0424 2.47567,0.0522 4.17077,0.11305 5.86563,0.1739"
         id="path1162-7-3"
         sodipodi:nodetypes="cccc"
         inkscape:original-d="m 92.221065,115.3797 c 2.368227,-0.31936 4.736145,-0.63898 7.103909,-0.95888 3.256396,0.0438 6.512356,0.0872 9.768236,0.13047 1.69545,0.0611 3.39055,0.12199 5.08542,0.18259"
         inkscape:path-effect="#path-effect1164-6-1" /><path
         style="fill:none;stroke:#000000;stroke-width:1.49478;stroke-linecap:round;stroke-dasharray:none;stroke-opacity:1;stop-color:#000000"
         d="m 148.96015,101.26412 c 1.10712,-1.10711 2.21422,-2.214213 3.27535,-2.706236 1.06114,-0.492024 2.07596,-0.369015 3.09051,-0.246039"
         id="path1166-1-3"
         inkscape:original-d="m 148.96015,101.26412 c 1.10739,-1.10684 2.21449,-2.213943 3.32132,-3.32131 1.01514,0.123273 2.02996,0.246286 3.04454,0.369035"
         inkscape:path-effect="#path-effect1168-4-6" /><path
         style="fill:none;stroke:#000000;stroke-width:1.49478;stroke-linecap:round;stroke-dasharray:none;stroke-opacity:1;stop-color:#000000"
         d="m 148.12982,116.02551 c 1.50686,-2.1834 3.01376,-4.36685 3.52124,-6.44257 0.50748,-2.07571 0.0154,-4.04386 0.46132,-5.88919 0.44588,-1.84533 1.82973,-3.56746 3.21363,-5.289649"
         id="path1170-5-9"
         inkscape:original-d="m 148.12982,116.02551 c 1.50717,-2.18319 3.01407,-4.36664 4.5207,-6.55037 -0.49179,-1.96796 -0.98385,-3.9361 -1.47615,-5.90455 1.38418,-1.72194 2.76803,-3.44406 4.15164,-5.166489"
         inkscape:path-effect="#path-effect1172-5-3" /><path
         style="fill:none;stroke:#000000;stroke-width:1.49478;stroke-linecap:round;stroke-dasharray:none;stroke-opacity:1;stop-color:#000000"
         d="m 148.12982,121.74555 c 3.29088,0.73814 6.58144,1.47621 9.57985,3.1985 2.99842,1.72229 5.70463,4.42849 7.33444,6.84264 1.62982,2.41414 2.18335,4.53605 2.73682,6.65769"
         id="path1174-3-8"
         inkscape:original-d="m 148.12982,121.74555 c 3.29084,0.73834 6.58139,1.47641 9.87169,2.21421 2.70659,2.70657 5.41279,5.41278 8.11878,8.11877 0.55383,2.12225 1.10736,4.24416 1.66064,6.36585"
         inkscape:path-effect="#path-effect1176-2-0" /><path
         style="fill:none;stroke:#000000;stroke-width:1.49478;stroke-linecap:round;stroke-dasharray:none;stroke-opacity:1;stop-color:#000000"
         d="m 149.51371,130.41787 c 2.67568,-0.76887 5.35119,-1.5377 7.3963,-1.07622 2.04511,0.46147 3.45972,2.15286 4.82828,3.39832 1.36855,1.24545 2.69089,2.04501 3.70569,2.96766 1.0148,0.92265 1.72211,1.96822 2.42923,3.01352"
         id="path1178-4-2"
         inkscape:original-d="m 149.51371,130.41787 c 2.67577,-0.76856 5.35128,-1.53738 8.02652,-2.30647 1.41491,1.69171 2.82953,3.38309 4.24389,5.07423 1.32268,0.79986 2.64502,1.59942 3.96712,2.39873 0.70761,1.04588 1.41489,2.09146 2.12197,3.13679"
         inkscape:path-effect="#path-effect1180-4-3" /><path
         style="fill:none;stroke:#000000;stroke-width:1.49478;stroke-linecap:round;stroke-dasharray:none;stroke-opacity:1;stop-color:#000000"
         d="m 148.03756,116.02551 c 2.0607,-0.24605 4.12113,-0.49207 5.85867,0.5691 1.73753,1.06117 3.15213,3.42909 3.96702,5.15126 0.81489,1.72217 1.03015,2.7985 1.24536,3.87455"
         id="path1182-0-4"
         inkscape:original-d="m 148.03756,116.02551 c 2.06073,-0.24576 4.12117,-0.49178 6.18135,-0.73807 1.41493,2.36829 2.82953,4.73621 4.24389,7.10392 0.21553,1.07664 0.43081,2.15297 0.64581,3.22906"
         inkscape:path-effect="#path-effect1184-9-2" /><path
         style="fill:none;stroke:#000000;stroke-width:1.49478;stroke-linecap:round;stroke-dasharray:none;stroke-opacity:1;stop-color:#000000"
         d="m 149.60445,130.39881 c 2.46843,0.72857 4.93657,1.45705 7.27961,3.64806 2.34304,2.19101 4.56105,5.8442 5.56123,8.77983 1.00019,2.93563 0.78273,5.15365 0.5653,7.37146"
         id="path1186-7-0"
         sodipodi:nodetypes="cccc"
         inkscape:original-d="m 149.60445,130.39881 c 2.46838,0.72874 4.93652,1.45722 7.40437,2.18543 2.21835,3.6536 4.43637,7.30678 6.65414,10.95977 -0.21707,2.21836 -0.43463,4.43637 -0.65237,6.65415"
         inkscape:path-effect="#path-effect1188-7-2" /><path
         style="fill:none;stroke:#000000;stroke-width:1.49478;stroke-linecap:round;stroke-dasharray:none;stroke-opacity:1;stop-color:#000000"
         d="m 150.61561,136.82463 c 0.89168,-0.43497 1.78324,-0.86988 3.21856,-0.26084 1.43532,0.60904 3.41413,2.26167 5.04498,4.71356 1.63085,2.45188 2.91383,5.70279 4.1967,8.95344"
         id="path1190-9-6"
         sodipodi:nodetypes="cccc"
         inkscape:original-d="m 150.61561,136.82463 c 0.89183,-0.43465 1.7834,-0.86956 2.67471,-1.30474 1.97915,1.65297 3.95796,3.3056 5.93654,4.958 1.28327,3.25129 2.56626,6.50219 3.84899,9.7529"
         inkscape:path-effect="#path-effect1192-4-2" /><path
         style="fill:none;stroke:#000000;stroke-width:1.49478;stroke-linecap:round;stroke-dasharray:none;stroke-opacity:1;stop-color:#000000"
         d="m 156.22598,138.32507 c 0.73946,2.13139 1.47879,4.26242 1.82668,6.90453 0.3479,2.64212 0.30444,5.79516 -0.0979,7.96963 -0.4023,2.17446 -1.16339,3.37046 -1.92445,4.5664"
         id="path1194-4-8"
         sodipodi:nodetypes="cccc"
         inkscape:original-d="m 156.22598,138.32507 c 0.7396,2.13134 1.47895,4.26236 2.21804,6.3932 -0.0432,3.15345 -0.0867,6.30649 -0.13037,9.45934 -0.76084,1.19628 -1.52193,2.39228 -2.2833,3.58802"
         inkscape:path-effect="#path-effect1196-9-9" /><ellipse
         style="fill:#000000;fill-opacity:1;stroke:#000000;stroke-width:1.49478;stroke-linecap:round;stroke-dasharray:none;stroke-opacity:1;stop-color:#000000"
         id="path1250-5-2"
         cx="121.22643"
         cy="158.15704"
         rx="5.6429796"
         ry="5.8713078" /><ellipse
         style="fill:#000000;fill-opacity:1;stroke:#000000;stroke-width:1.49478;stroke-linecap:round;stroke-dasharray:none;stroke-opacity:1;stop-color:#000000"
         id="path1250-8-8-7"
         cx="86.944557"
         cy="158.87465"
         rx="5.6429796"
         ry="5.8713078" /><path
         style="fill:#f2f2f2;fill-opacity:1;stroke:#f9f9f9;stroke-width:1.49478;stroke-linecap:round;stroke-dasharray:none;stroke-opacity:1;stop-color:#000000"
         d="m 88.115538,154.58966 c 0.446237,0.10771 0.892146,0.21534 1.168857,0.36153 0.276711,0.14618 0.384356,0.33072 0.491805,0.51492"
         id="path1274-8-0"
         inkscape:original-d="m 88.115538,154.58966 c 0.446193,0.10789 0.8921,0.21553 1.337764,0.3229 0.107875,0.18477 0.21553,0.3693 0.322898,0.55355"
         inkscape:path-effect="#path-effect1276-7-2" /><path
         style="fill:#f2f2f2;fill-opacity:1;stroke:#f9f9f9;stroke-width:1.49478;stroke-linecap:round;stroke-dasharray:none;stroke-opacity:1;stop-color:#000000"
         d="m 122.12492,153.80462 c 0.44621,0.10771 0.89213,0.21534 1.16884,0.36153 0.27671,0.14619 0.38435,0.33072 0.4918,0.51493"
         id="path1274-5-1-2"
         inkscape:original-d="m 122.12492,153.80462 c 0.44617,0.10789 0.89208,0.21553 1.33774,0.3229 0.10788,0.18478 0.21553,0.3693 0.3229,0.55356"
         inkscape:path-effect="#path-effect1276-0-0-8" /><path
         style="fill:none;fill-opacity:1;stroke:#000000;stroke-width:1.49478;stroke-linecap:round;stroke-dasharray:none;stroke-opacity:1;stop-color:#000000"
         d="m 118.03816,148.54668 c -0.15373,0.0922 -0.46125,0.27675 -0.76496,0.49587 -0.30371,0.21913 -0.60355,0.47285 -0.98785,0.61125 -0.3843,0.13839 -0.85328,0.16146 -1.21851,0.21142 -0.36523,0.0499 -0.62664,0.12684 -0.78815,-0.16515 -0.16151,-0.292 -0.22298,-0.95317 0.008,-1.63755 0.23064,-0.68439 0.75342,-1.39168 1.32251,-1.74536 0.56908,-0.35368 1.18411,-0.35368 1.48382,-0.35368 0.29971,0 0.28471,0 0.33075,0.13086 0.046,0.13085 0.15367,0.39225 0.27673,0.54589 0.12306,0.15364 0.26154,0.1998 0.35365,0.3921 0.0921,0.1923 0.13821,0.53057 0.15355,0.79196 0.0153,0.2614 -2e-5,0.44589 -0.008,0.53803 -0.008,0.0921 -0.008,0.0921 -0.1615,0.18436 z"
         id="path1282-7-5"
         sodipodi:nodetypes="scccccccccccss"
         inkscape:original-d="m 118.19188,148.45445 c -0.30726,0.18478 -0.61478,0.36929 -0.92259,0.55355 -0.29955,0.25397 -0.5994,0.50768 -0.89951,0.76114 -0.46872,0.0233 -0.9377,0.0464 -1.40694,0.0692 -0.26115,0.0771 -0.52255,0.15402 -0.78421,0.23065 -0.0613,-0.66093 -0.12265,-1.32212 -0.18442,-1.98357 0.52307,-0.70707 1.04586,-1.41436 1.5684,-2.12194 0.61533,2.6e-4 1.23036,2.6e-4 1.84518,0 -0.0154,2.6e-4 -0.0304,2.6e-4 -0.0461,0 0.10788,0.26167 0.21553,0.52306 0.32292,0.78419 0.13854,0.0464 0.27704,0.0925 0.41516,0.13839 0.0463,0.33855 0.0924,0.67682 0.13832,1.01484 -0.0155,0.18478 -0.0305,0.3693 -0.0461,0.55356 z"
         inkscape:path-effect="#path-effect1284-2-8" /><path
         style="fill:none;fill-opacity:1;stroke:#000000;stroke-width:1.49478;stroke-linecap:round;stroke-dasharray:none;stroke-opacity:1;stop-color:#000000"
         d="m 94.158497,150.66866 c -0.06145,-0.69167 -0.122925,-1.3836 -0.422657,-2.08323 -0.299731,-0.69963 -0.837902,-1.40694 -1.483691,-1.76842 -0.64579,-0.36149 -1.399243,-0.37686 -2.152941,-0.39223"
         id="path1286-9-3"
         inkscape:original-d="m 94.158497,150.66866 c -0.06133,-0.69168 -0.122656,-1.38362 -0.184425,-2.07582 -0.537921,-0.70707 -1.076106,-1.41437 -1.614534,-2.12196 -0.753186,-0.015 -1.506637,-0.0305 -2.26033,-0.0461"
         inkscape:path-effect="#path-effect1288-3-5" /><path
         style="fill:none;fill-opacity:1;stroke:#000000;stroke-width:1.49478;stroke-linecap:round;stroke-dasharray:none;stroke-opacity:1;stop-color:#000000"
         d="m 94.06624,150.66866 c -0.184421,0.12294 -0.368983,0.24598 -0.591807,0.25376 -0.222825,0.008 -0.484221,-0.0999 -0.930153,-0.18449 -0.445932,-0.0846 -1.076376,-0.14613 -1.62992,-0.33824 -0.553544,-0.19212 -1.030217,-0.51503 -1.322457,-0.79945 -0.29224,-0.28442 -0.399881,-0.53044 -0.457654,-0.73083 -0.05777,-0.20038 -0.06557,-0.3552 0.05742,-0.59366 0.122993,-0.23847 0.376801,-0.56036 0.549814,-0.89036 0.173013,-0.33 0.265286,-0.66831 0.357594,-1.00676"
         id="path1290-7-5"
         sodipodi:nodetypes="ccccccccc"
         inkscape:original-d="m 94.06624,150.66866 c -0.184204,0.12327 -0.368784,0.24628 -0.553561,0.36903 -0.261129,-0.10736 -0.522523,-0.215 -0.784203,-0.32291 -0.630155,-0.0612 -1.260597,-0.12272 -1.891304,-0.18451 -0.476394,-0.32264 -0.953075,-0.64554 -1.429999,-0.96872 -0.107434,-0.24576 -0.215088,-0.49178 -0.32292,-0.73807 -0.0066,-0.15451 -0.01544,-0.30928 -0.02338,-0.46432 0.254092,-0.32164 0.507897,-0.64354 0.761415,-0.96568 0.09243,-0.33803 0.184866,-0.6763 0.276792,-1.01485"
         inkscape:path-effect="#path-effect1292-6-9" /><path
         style="fill:none;fill-opacity:1;stroke:#000000;stroke-width:1.49478;stroke-linecap:round;stroke-dasharray:none;stroke-opacity:1;stop-color:#000000"
         d="m 99.035217,181.53899 c 0.478541,0.0272 1.435343,0.0815 2.451953,0.0707 1.0166,-0.0109 2.09299,-0.087 3.06071,-0.0761 0.96772,0.0109 1.82663,0.10875 2.52793,0.3698 0.7013,0.26105 1.24494,0.68508 1.50572,1.36466 0.26079,0.67958 0.23902,1.6146 0.0922,2.56051 -0.14682,0.9459 -0.41863,1.90268 -0.83177,2.6637 -0.41315,0.76101 -0.96765,1.32639 -1.88086,1.61451 -0.9132,0.28812 -2.18527,0.29899 -3.0714,0.28269 -0.88614,-0.0163 -1.38626,-0.0598 -2.02236,-0.0272 -0.6361,0.0326 -1.408059,0.14132 -2.131065,0.0924 -0.723005,-0.0489 -1.397082,-0.25544 -2.00061,-0.88053 -0.603527,-0.62509 -1.136281,-1.66885 -1.435346,-2.5822 -0.299065,-0.91334 -0.364287,-1.69615 -0.255589,-2.4682 0.108699,-0.77205 0.391381,-1.53313 0.820952,-2.04425 0.429572,-0.51112 1.005816,-0.77206 1.478859,-0.89161 0.473044,-0.11956 0.842722,-0.0978 1.027418,-0.0869 0.184696,0.0109 0.184718,0.0108 0.663258,0.038 z"
         id="path1294-0-8"
         inkscape:original-d="m 98.556677,181.5118 c 0.957068,0.0546 1.913873,0.109 2.870433,0.16309 1.07668,-0.0758 2.15307,-0.15195 3.22922,-0.22833 0.85923,0.0982 1.71815,0.19598 2.57683,0.29356 0.54392,0.42431 1.08756,0.84835 1.63093,1.27212 -0.0221,0.93534 -0.0432,1.87038 -0.0653,2.80518 -0.27154,0.9571 -0.54337,1.91387 -0.81546,2.87042 -0.55425,0.56566 -1.10876,1.13103 -1.66353,1.69615 -1.2719,0.0113 -2.54397,0.0221 -3.81636,0.0326 -0.49989,-0.0433 -1.00002,-0.0867 -1.50044,-0.13047 -0.77172,0.109 -1.543678,0.21772 -2.315902,0.32619 -0.673879,-0.20633 -1.347956,-0.4129 -2.022342,-0.61975 -0.532516,-1.04355 -1.065275,-2.08731 -1.598298,-3.13136 -0.06508,-0.7826 -0.130156,-1.56542 -0.195675,-2.34852 0.282968,-0.76086 0.56565,-1.52194 0.848067,-2.28329 0.576549,-0.26069 1.152788,-0.52164 1.728785,-0.78284 0.369931,0.0221 0.739619,0.0437 1.10902,0.0653 z"
         inkscape:path-effect="#path-effect1296-1-0" /><path
         style="fill:none;fill-opacity:1;stroke:#000000;stroke-width:1.49478;stroke-linecap:round;stroke-dasharray:none;stroke-opacity:1;stop-color:#000000"
         d="m 103.31896,187.97912 c 0.0109,-0.2395 0.0217,-0.47925 0.13588,-0.74722 0.11415,-0.26797 0.33159,-0.56393 0.68181,-0.7142 0.35023,-0.15026 0.83291,-0.15476 1.31533,-0.15926"
         id="path1298-7-1"
         sodipodi:nodetypes="cccc"
         inkscape:original-d="m 103.31896,187.97912 c 0.011,-0.23949 0.0221,-0.47923 0.0326,-0.71925 0.21774,-0.29571 0.43517,-0.59168 0.65237,-0.88793 0.48295,-0.004 0.96563,-0.009 1.44805,-0.0135"
         inkscape:path-effect="#path-effect1300-1-4" /><path
         style="fill:none;fill-opacity:1;stroke:#000000;stroke-width:1.49478;stroke-linecap:round;stroke-dasharray:none;stroke-opacity:1;stop-color:#000000"
         d="m 99.656167,188.07302 c 0.02491,-0.31671 0.04984,-0.63366 -0.03546,-0.98237 -0.0853,-0.34872 -0.281008,-0.72926 -0.587408,-0.93572 -0.306401,-0.20645 -0.723632,-0.23852 -1.141119,-0.27061"
         id="path1302-2-5"
         sodipodi:nodetypes="cccc"
         inkscape:original-d="m 99.656167,188.07302 c 0.02515,-0.31669 0.05008,-0.63364 0.07479,-0.95085 -0.195455,-0.38029 -0.391153,-0.76083 -0.587138,-1.14165 -0.416941,-0.0318 -0.834169,-0.0639 -1.25164,-0.0962"
         inkscape:path-effect="#path-effect1304-9-0" /><path
         style="fill:none;fill-opacity:1;stroke:#000000;stroke-width:1.49478;stroke-linecap:round;stroke-dasharray:none;stroke-opacity:1;stop-color:#000000"
         d="m 83.747933,174.401 c 1.13098,1.65297 2.261755,3.30564 3.262039,4.95832 1.000284,1.65268 1.870089,3.30531 2.674662,5.12109 0.804572,1.81578 1.543902,3.79458 2.479063,5.21889 0.935161,1.4243 2.065907,2.2941 3.82731,2.78327 1.761404,0.48917 4.153363,0.5979 6.164823,0.51089 2.01146,-0.087 3.64234,-0.3697 5.18622,-0.95684 1.54388,-0.58715 3.00082,-1.4787 4.06635,-2.15281 1.06553,-0.67411 1.73963,-1.13076 2.56593,-2.01143 0.82629,-0.88066 1.80483,-2.18538 2.76164,-3.44664 0.95681,-1.26125 1.89186,-2.47899 2.89217,-3.84897 1.0003,-1.36998 2.06582,-2.89214 3.13139,-4.41438"
         id="path1306-5-8"
         inkscape:original-d="m 83.747933,174.401 c 1.131036,1.65293 2.261808,3.3056 3.392315,4.95799 0.870106,1.65296 1.739903,3.30559 2.609479,4.958 0.739619,1.97915 1.478951,3.95795 2.21804,5.93654 1.131059,0.87011 2.261808,1.73991 3.392315,2.60947 2.392317,0.109 4.784278,0.21772 7.176048,0.32618 1.63121,-0.28243 3.26209,-0.56511 4.89275,-0.84808 1.45724,-0.89132 2.91418,-1.78287 4.37087,-2.6747 0.67439,-0.4564 1.34849,-0.91305 2.02234,-1.36997 0.97882,-1.3045 1.95736,-2.60921 2.93565,-3.91421 0.93533,-1.21751 1.87039,-2.43524 2.80517,-3.65325 1.06583,-1.52197 2.13135,-3.04413 3.19662,-4.56658"
         inkscape:path-effect="#path-effect1308-0-9" /><path
         style="fill:none;fill-opacity:1;stroke:#000000;stroke-width:1.49478;stroke-linecap:round;stroke-dasharray:none;stroke-opacity:1;stop-color:#000000"
         d="m 107.23316,192.21063 c 0.13051,1.54424 0.26098,3.08816 0.60897,4.62126 0.34798,1.53309 0.91335,3.05526 1.79415,4.3056 0.88079,1.25034 2.07677,2.22886 3.33804,2.80503 1.26126,0.57616 2.58771,0.75012 4.19682,0.43475 1.60911,-0.31537 3.50093,-1.11993 4.77299,-1.8049 1.27207,-0.68498 1.92443,-1.25035 2.08755,-2.26138 0.16312,-1.01102 -0.16306,-2.46795 -0.86974,-4.07713 -0.70668,-1.60919 -1.79395,-3.37055 -2.46813,-4.92538 -0.67418,-1.55482 -0.93512,-2.90302 -1.13086,-4.56658 -0.19573,-1.66357 -0.3262,-3.64239 -0.45669,-5.62152"
         id="path1310-9-0"
         inkscape:original-d="m 107.23316,192.21063 c 0.13082,1.54421 0.26122,3.08814 0.39144,4.63182 0.56565,1.52248 1.13104,3.04464 1.69614,4.56656 1.19631,0.97884 2.39229,1.95737 3.58803,2.93566 1.32678,0.17423 2.65323,0.34819 3.97945,0.52189 1.89217,-0.80434 3.78398,-1.60891 5.67559,-2.41376 0.65263,-0.56513 1.305,-1.1305 1.95711,-1.69616 -0.32594,-1.45671 -0.65211,-2.91364 -0.97855,-4.37086 -1.08705,-1.76115 -2.1743,-3.52252 -3.26185,-5.28417 -0.26069,-1.34799 -0.52162,-2.69619 -0.78284,-4.04468 -0.13016,-1.97862 -0.26069,-3.95744 -0.39142,-5.93655"
         inkscape:path-effect="#path-effect1312-9-2" /><path
         style="fill:none;fill-opacity:1;stroke:#000000;stroke-width:1.49478;stroke-linecap:round;stroke-dasharray:none;stroke-opacity:1;stop-color:#000000"
         d="m 98.882862,193.12395 c 1.218058,0.71778 2.435818,1.43539 3.849268,1.73973 1.41344,0.30434 3.02259,0.19561 4.63152,0.0869"
         id="path1314-5-8"
         inkscape:original-d="m 98.882862,193.12395 c 1.218018,0.71786 2.435778,1.43546 3.653268,2.15281 1.60946,-0.10847 3.21861,-0.21719 4.82752,-0.32618"
         inkscape:path-effect="#path-effect1316-0-8" /><path
         style="fill:#fb9898;fill-opacity:1;stroke:none;stroke-width:1.97251;stroke-linecap:round;stroke-dasharray:none;stroke-opacity:1;stop-color:#000000"
         d="m 113.22708,202.7587 c -2.25757,-1.125 -3.62635,-3.23815 -4.34215,-6.70351 -0.64846,-3.13946 -0.69552,-3.02281 1.78954,-4.43588 2.61134,-1.48487 4.26355,-2.92664 6.00058,-5.23626 0.70801,-0.94139 1.38321,-1.65233 1.50044,-1.57987 0.11714,0.0724 0.2131,0.54075 0.2131,1.04066 0,2.20965 0.83115,4.97131 2.53488,8.4226 1.81638,3.67953 2.30597,5.62285 1.62373,6.44492 -0.47234,0.56913 -2.94948,1.79066 -4.66262,2.29924 -1.97855,0.58736 -3.0945,0.52701 -4.65757,-0.2519 z"
         id="path1589-1-3" /><path
         style="fill:none;stroke:#fb2929;stroke-width:3.96875;stroke-linecap:round;stroke-dasharray:none;stroke-opacity:1;stop-color:#000000"
         d="m 78.579602,90.225667 6.046687,24.301953 37.264461,-0.53121 5.41388,-24.036345"
         id="path3538" /><ellipse
         style="fill:none;fill-opacity:1;stroke:#000000;stroke-width:0.882416;stroke-linecap:round;stroke-dasharray:none;stop-color:#000000"
         id="path3612"
         cx="103.03842"
         cy="72.191711"
         rx="3.4720361"
         ry="3.4209766" /><ellipse
         style="fill:none;fill-opacity:1;stroke:#000000;stroke-width:0.882416;stroke-linecap:round;stroke-dasharray:none;stop-color:#000000"
         id="path3614"
         cx="114.25469"
         cy="85.044388"
         rx="2.2466118"
         ry="2.1955521" /><ellipse
         style="fill:none;fill-opacity:1;stroke:#000000;stroke-width:0.882416;stroke-linecap:round;stroke-dasharray:none;stop-color:#000000"
         id="path3612-1"
         cx="77.338852"
         cy="83.997688"
         rx="3.4720361"
         ry="3.4209766" /><ellipse
         style="fill:none;fill-opacity:1;stroke:#000000;stroke-width:0.882416;stroke-linecap:round;stroke-dasharray:none;stop-color:#000000"
         id="path3612-2"
         cx="128.14285"
         cy="84.048759"
         rx="3.4720361"
         ry="3.4209766" /><ellipse
         style="fill:none;fill-opacity:1;stroke:#000000;stroke-width:0.882416;stroke-linecap:round;stroke-dasharray:none;stop-color:#000000"
         id="path3614-8"
         cx="91.278038"
         cy="83.972168"
         rx="2.2466118"
         ry="2.1955521" /><path
         style="fill:#000000;fill-opacity:0;stroke:none;stroke-width:0.109166;stroke-linecap:round;stroke-dasharray:none;stroke-opacity:1;stop-color:#000000"
         d="m 76.558841,87.832345 c -0.529953,-0.179405 -0.987799,-0.474009 -1.315833,-0.846681 -1.303308,-1.480629 -0.861969,-3.679833 0.914675,-4.557898 0.531115,-0.262492 0.576659,-0.27193 1.31215,-0.27193 0.707077,0 0.796988,0.0166 1.248681,0.230572 0.629979,0.298426 1.150523,0.818971 1.448948,1.448951 0.211473,0.446416 0.230577,0.546566 0.230577,1.20883 0,0.662264 -0.01909,0.762414 -0.230577,1.20883 -0.132677,0.280089 -0.380362,0.636536 -0.58339,0.83956 l -0.352817,0.352819 -0.727168,0.02921 c -0.639569,0.02569 -0.779401,0.05615 -1.160808,0.252852 l -0.43364,0.223647 z"
         id="path8071" /><path
         style="fill:#8b99fe;fill-opacity:1;stroke:none;stroke-width:0.038596;stroke-linecap:round;stroke-dasharray:none;stroke-opacity:1;stop-color:#000000"
         d="M 76.902828,86.934557 C 76.50258,86.876877 76.028269,86.695656 75.672574,86.464504 75.396446,86.28506 74.981227,85.873947 74.80984,85.610311 74.040157,84.426332 74.196806,82.9171 75.192753,81.921157 c 0.801983,-0.801985 2.003351,-1.088262 3.088677,-0.736011 0.700248,0.227272 1.311339,0.719971 1.679,1.353727 0.39259,0.676715 0.497536,1.503248 0.285338,2.247241 -0.07772,0.272522 -0.301413,0.730884 -0.458032,0.938553 -0.504721,0.669246 -1.222707,1.095226 -2.042429,1.21177 -0.211467,0.03007 -0.627235,0.02914 -0.842479,-0.0019 z"
         id="path9966" /><path
         style="fill:#8b99fe;fill-opacity:1;stroke:none;stroke-width:0.038596;stroke-linecap:round;stroke-dasharray:none;stroke-opacity:1;stop-color:#000000"
         d="m 90.893088,85.670141 c -0.57321,-0.120602 -1.117189,-0.591261 -1.303903,-1.128156 -0.206389,-0.593464 -0.09149,-1.196718 0.321994,-1.690579 0.191862,-0.229158 0.489031,-0.42385 0.816517,-0.53495 0.230963,-0.07835 0.708216,-0.09826 0.956817,-0.03991 0.372377,0.0874 0.769549,0.334814 0.996764,0.620922 0.1365,0.171882 0.298466,0.496426 0.34708,0.695475 0.05755,0.235753 0.04033,0.641404 -0.03747,0.880773 -0.156905,0.482809 -0.471048,0.834342 -0.94896,1.061913 -0.352754,0.167974 -0.762037,0.215896 -1.148837,0.134515 z"
         id="path9968" /><path
         style="fill:#8b99fe;fill-opacity:1;stroke:none;stroke-width:0.038596;stroke-linecap:round;stroke-dasharray:none;stroke-opacity:1;stop-color:#000000"
         d="m 102.81545,75.151617 c -0.83641,-0.09696 -1.46466,-0.398695 -1.98763,-0.954623 -0.840973,-0.893955 -1.041088,-2.160551 -0.515,-3.259631 0.14992,-0.313207 0.28711,-0.510375 0.53429,-0.767843 0.25919,-0.269976 0.47287,-0.431179 0.78562,-0.592703 0.48309,-0.249492 0.88628,-0.345063 1.43801,-0.340859 0.64774,0.005 1.22063,0.189624 1.74214,0.56164 0.54244,0.386946 0.97754,1.015791 1.14579,1.65598 0.0896,0.340828 0.1126,0.9113 0.0502,1.243546 -0.21867,1.164243 -1.07642,2.075329 -2.2277,2.366244 -0.31449,0.07947 -0.72102,0.116616 -0.96572,0.08825 z"
         id="path9970" /><path
         style="fill:#8b99fe;fill-opacity:1;stroke:none;stroke-width:0.038596;stroke-linecap:round;stroke-dasharray:none;stroke-opacity:1;stop-color:#000000"
         d="m 113.8698,86.742387 c -0.57321,-0.120602 -1.11719,-0.591261 -1.30391,-1.128156 -0.20638,-0.593463 -0.0915,-1.196718 0.322,-1.690578 0.19186,-0.229158 0.48903,-0.423851 0.81652,-0.534951 0.23096,-0.07835 0.70821,-0.09826 0.95681,-0.03991 0.37238,0.0874 0.76955,0.334815 0.99677,0.620923 0.1365,0.171881 0.29846,0.496426 0.34708,0.695474 0.0575,0.235753 0.0403,0.641404 -0.0375,0.880774 -0.1569,0.482808 -0.47104,0.834342 -0.94896,1.061912 -0.35275,0.167974 -0.76203,0.215896 -1.14883,0.134515 z"
         id="path9972" /><path
         style="fill:#8b99fe;fill-opacity:1;stroke:none;stroke-width:0.038596;stroke-linecap:round;stroke-dasharray:none;stroke-opacity:1;stop-color:#000000"
         d="m 127.70688,86.985616 c -0.40024,-0.05768 -0.87456,-0.238901 -1.23025,-0.470052 -0.27612,-0.179445 -0.69135,-0.590557 -0.86273,-0.854193 -0.76968,-1.18398 -0.61303,-2.693212 0.38291,-3.689154 0.80198,-0.801985 2.00335,-1.088263 3.08868,-0.736011 0.70025,0.227271 1.31133,0.71997 1.679,1.353726 0.39259,0.676715 0.49754,1.503248 0.28534,2.247241 -0.0777,0.272523 -0.30142,0.730885 -0.45803,0.938554 -0.50472,0.669246 -1.22271,1.095226 -2.04244,1.21177 -0.21146,0.03006 -0.62723,0.02914 -0.84248,-0.0019 z"
         id="path9974" /></g><text
       xml:space="preserve"
       style="font-weight:bold;font-size:2.82223px;line-height:1.2;font-family:sans-serif;-inkscape-font-specification:'sans-serif Bold';text-align:center;text-anchor:middle;opacity:0.35958;fill:#fb9898;fill-opacity:1;stroke:none;stroke-width:0.4;stroke-linecap:round;stroke-dasharray:none;stop-color:#000000"
       x="103.01956"
       y="73.115883"
       id="text494"><tspan
         sodipodi:role="line"
         id="tspan492"
         style="fill:#fb9898;fill-opacity:1;stroke:none;stroke-width:0.4;stroke-dasharray:none"
         x="103.01956"
         y="73.115883">ZF</tspan></text></g></svg>
