<?xml version="1.0" standalone="no"?>
<!DOCTYPE svg PUBLIC "-//W3C//DTD SVG 20010904//EN"
 "http://www.w3.org/TR/2001/REC-SVG-20010904/DTD/svg10.dtd">
<svg version="1.0" xmlns="http://www.w3.org/2000/svg"
 width="1024.000000pt" height="1536.000000pt" viewBox="0 0 1024.000000 1536.000000"
 preserveAspectRatio="xMidYMid meet">

<g transform="translate(0.000000,1536.000000) scale(0.100000,-0.100000)"
fill="#000000" stroke="none">
<path d="M9560 14515 c-36 -12 -168 -74 -295 -137 -126 -63 -293 -143 -370
-178 -221 -101 -655 -320 -826 -419 -213 -122 -349 -208 -959 -609 -288 -191
-551 -357 -585 -371 l-60 -26 -770 -6 c-781 -7 -1251 -17 -2010 -45 -932 -34
-1625 -30 -2522 13 -341 16 -353 16 -373 -2 -11 -10 -20 -27 -20 -38 0 -11 92
-160 204 -331 222 -341 907 -1393 1076 -1656 142 -222 306 -444 373 -507 33
-32 50 -54 42 -57 -7 -2 -16 -22 -20 -43 -8 -45 -34 -103 -45 -103 -5 0 -6 24
-3 53 10 102 -30 180 -85 161 -50 -17 -65 -136 -37 -282 12 -60 38 -121 119
-282 115 -227 136 -285 136 -375 0 -84 -19 -150 -105 -366 -125 -312 -155
-447 -155 -687 0 -286 45 -389 200 -461 168 -78 679 -201 1079 -261 82 -12
133 -25 150 -37 14 -11 47 -50 73 -89 82 -122 336 -548 390 -655 83 -163 74
-210 -82 -419 -118 -159 -202 -296 -300 -495 -118 -240 -185 -420 -420 -1125
-109 -327 -208 -620 -220 -650 -12 -30 -51 -108 -87 -172 -140 -252 -204 -452
-333 -1033 -98 -442 -115 -492 -198 -567 -44 -39 -296 -184 -450 -258 -70 -33
-155 -61 -292 -95 -106 -27 -136 -43 -150 -80 -5 -14 -27 -27 -66 -39 -348
-109 -191 -227 426 -320 716 -108 1802 -161 3305 -160 1060 0 1658 22 2325 85
785 74 1230 173 1230 274 0 65 -146 119 -486 179 -202 35 -319 90 -627 293
-180 119 -285 213 -340 304 -42 72 -102 222 -202 504 -37 105 -110 303 -162
440 -130 341 -151 405 -169 515 -16 101 -29 129 -103 214 -97 112 -193 279
-398 696 -255 515 -509 977 -662 1204 -72 105 -128 175 -219 272 -130 137
-132 140 -132 192 0 30 8 62 23 88 12 22 55 101 96 175 40 74 112 199 159 278
47 79 102 185 123 235 58 144 76 176 112 191 18 7 97 20 177 29 508 57 1061
213 1208 341 110 96 220 322 257 525 23 128 31 521 16 755 -14 212 -5 308 35
387 16 32 76 103 158 188 99 103 143 158 181 224 109 190 114 196 148 196 84
1 268 20 286 30 12 6 23 23 27 38 3 15 12 41 19 57 46 100 67 155 76 195 6 25
242 846 525 1825 505 1742 658 2281 652 2295 -2 4 -32 -3 -68 -15z m-200 -462
c-22 -87 -51 -192 -64 -233 l-24 -75 -79 -7 c-219 -19 -572 -153 -777 -295
-74 -51 -81 -60 -66 -83 8 -13 30 -4 137 52 164 86 272 132 398 169 130 39
337 81 348 70 7 -7 -101 -402 -123 -446 -5 -11 -19 -58 -30 -105 -26 -106
-181 -640 -213 -735 -13 -38 -50 -161 -82 -272 l-58 -203 -76 -1 c-42 0 -89
-2 -106 -4 -43 -6 -5224 -12 -6220 -8 l-840 3 -78 121 c-43 66 -81 127 -84
135 -4 12 32 14 255 14 404 0 798 -34 1066 -91 78 -17 182 -39 231 -49 105
-23 148 -25 143 -8 -10 29 -288 115 -498 153 -268 49 -495 67 -1019 81 l-254
7 -43 61 c-117 163 -194 279 -190 283 3 3 164 -2 358 -11 500 -24 1469 -32
2127 -17 300 7 560 14 576 16 17 2 199 7 405 10 206 4 389 9 405 10 17 2 374
7 795 10 421 4 797 11 835 16 39 5 93 20 120 33 28 12 275 174 550 358 770
516 1007 658 1510 903 508 249 698 332 703 310 2 -7 -15 -84 -38 -172z m-691
-2360 c-10 -38 -65 -225 -120 -418 l-101 -350 -142 0 c-77 0 -566 -4 -1086 -7
-641 -5 -939 -4 -927 3 24 14 21 35 -5 43 -13 3 -111 11 -218 16 -475 24 -581
31 -678 45 -218 31 -468 89 -962 223 -296 81 -444 114 -625 141 -261 39 -370
43 -1185 46 -446 1 -808 6 -825 12 -24 7 -49 38 -122 148 -51 77 -93 142 -93
145 0 10 4147 0 4360 -11 250 -12 437 -33 592 -65 149 -31 231 -58 437 -144
375 -156 493 -181 833 -182 119 0 221 3 227 6 5 4 103 7 216 6 l206 0 11 25
c6 14 8 28 4 32 -4 4 -188 8 -409 8 -571 2 -656 16 -1102 192 -104 41 -229 85
-278 97 l-87 23 187 6 c104 4 492 8 863 8 558 1 976 8 1037 17 8 1 6 -19 -8
-65z m-5004 -361 c227 -29 372 -56 595 -113 587 -151 719 -183 874 -214 218
-44 489 -75 736 -84 132 -5 -43 -8 -540 -8 -917 0 -2135 13 -2765 30 l-479 12
-128 195 c-69 107 -127 199 -127 203 -1 5 376 7 837 4 765 -4 851 -6 997 -25z
m2573 -419 c-15 -2 -42 -2 -60 0 -18 2 -6 4 27 4 33 0 48 -2 33 -4z m-3108
-114 c413 -14 4653 -23 4995 -10 153 5 281 9 282 7 5 -4 -102 -361 -137 -458
-30 -82 -34 -88 -63 -92 -45 -7 -622 -22 -1752 -47 -741 -16 -988 -25 -1012
-35 -60 -24 -50 -104 15 -121 15 -3 459 4 987 17 528 12 1034 23 1123 24 l164
1 -42 -38 c-24 -20 -97 -65 -164 -100 -235 -121 -304 -226 -361 -542 -34 -190
-148 -594 -283 -1000 l-47 -140 -80 -17 c-121 -26 -397 -75 -517 -92 -206 -30
-287 -30 -458 -2 -85 14 -186 26 -225 26 -120 0 -175 49 -175 156 0 43 9 68
49 145 38 73 59 133 94 269 l46 175 -3 300 c-3 332 -8 361 -69 451 -64 95
-172 161 -307 186 -106 20 -234 -9 -400 -90 -79 -39 -110 -62 -186 -137 -79
-78 -98 -103 -138 -187 -30 -60 -57 -137 -73 -205 -40 -173 -72 -272 -115
-358 -56 -111 -88 -156 -193 -267 -50 -54 -107 -125 -126 -158 -84 -150 -126
-214 -149 -232 -75 -55 -371 -73 -655 -39 -99 12 -214 25 -255 29 l-74 7 -8
35 c-12 54 -11 468 2 620 29 348 79 638 141 823 39 112 40 119 25 143 -19 28
-47 31 -85 8 -37 -22 -64 -64 -111 -174 -22 -51 -41 -95 -43 -97 -5 -4 -127
142 -160 192 -36 54 -65 142 -82 250 -8 50 -15 96 -15 102 0 8 26 -1 68 -21
83 -42 126 -56 271 -91 l115 -28 1075 22 c767 16 1083 26 1101 34 30 15 50 51
42 79 -3 11 -20 29 -38 40 -19 11 -34 24 -34 28 0 5 -82 43 -182 86 -513 217
-619 244 -951 244 -188 0 -327 -14 -602 -59 -241 -40 -445 -53 -710 -47 l-219
5 -31 58 c-17 32 -72 120 -123 195 -51 76 -92 141 -92 144 0 8 513 -1 950 -17z
m998 -359 c198 -21 298 -48 592 -157 202 -75 258 -93 320 -102 43 -6 -1572
-42 -1870 -41 -231 0 -422 31 -535 87 -61 30 -143 98 -132 110 5 4 77 7 160 5
206 -4 444 13 673 48 165 25 234 33 444 53 81 8 258 6 348 -3z m3766 -372
c-21 -69 -117 -167 -269 -275 -119 -85 -177 -142 -204 -203 -25 -57 -39 -33
-21 39 15 64 45 93 145 143 156 79 223 137 296 261 34 57 67 79 53 35z m-2761
-329 c27 -14 87 -70 87 -81 0 -4 -26 -8 -57 -8 -79 0 -174 -24 -258 -65 -65
-32 -116 -67 -244 -172 -46 -38 -157 -90 -168 -79 -9 9 38 101 79 153 82 107
233 203 380 242 83 23 149 26 181 10z m155 -15 c30 -21 44 -49 36 -78 -4 -17
-11 -22 -25 -19 -10 3 -19 9 -19 14 0 5 -11 27 -25 49 -14 22 -25 42 -25 45 0
11 37 4 58 -11z m-29 -150 c38 -8 76 -20 85 -27 14 -11 14 -14 -2 -35 -15 -19
-21 -21 -52 -12 -19 5 -72 10 -118 10 -139 0 -239 -43 -436 -189 -73 -54 -135
-90 -185 -110 -111 -42 -121 -44 -121 -29 1 27 37 57 115 96 44 22 125 73 180
112 168 121 274 172 387 189 35 4 67 9 71 10 4 0 39 -6 76 -15z m2067 -201
c10 -54 -23 -487 -46 -603 -26 -127 -71 -266 -113 -344 -34 -65 -153 -199
-168 -190 -17 10 -9 98 16 191 13 51 60 213 104 360 44 148 101 342 126 433
25 91 48 171 50 178 8 24 24 11 31 -25z m-2090 -18 c26 -15 53 -43 68 -68 55
-95 116 -353 88 -371 -5 -3 -24 -3 -42 0 -25 5 -31 11 -27 25 4 16 -1 19 -34
19 -40 0 -79 -26 -79 -54 0 -25 50 -56 90 -56 32 0 38 -4 42 -24 5 -23 1 -25
-46 -31 -99 -13 -128 -24 -124 -48 3 -20 10 -22 88 -27 l85 -5 -25 -22 c-13
-13 -33 -23 -45 -23 -28 0 -60 -24 -51 -38 4 -7 27 -12 51 -12 24 0 47 -4 50
-10 8 -13 -21 -66 -47 -84 -47 -33 -169 -13 -281 46 -69 37 -185 156 -194 199
-7 37 -20 37 -30 2 -7 -30 36 -307 68 -431 26 -102 66 -187 104 -221 18 -16
64 -40 102 -55 70 -27 120 -66 109 -84 -13 -21 -143 -35 -272 -29 -214 9 -389
66 -490 159 -24 22 -44 46 -44 54 0 7 31 29 70 50 98 51 154 103 189 177 43
87 156 506 180 662 23 153 29 171 72 219 42 48 101 82 174 100 78 20 146 13
201 -19z m258 -84 c3 -5 -9 -11 -26 -15 -36 -7 -68 -32 -68 -53 0 -8 -4 -11
-10 -8 -18 11 -10 43 16 64 27 21 78 28 88 12z m3 -57 c-3 -3 -12 -4 -19 -1
-8 3 -5 6 6 6 11 1 17 -2 13 -5z m-829 -71 c-27 -29 -199 -122 -270 -146 -27
-9 -22 16 8 53 37 44 288 168 292 144 2 -9 -11 -32 -30 -51z m828 -50 c-7 -8
-76 17 -76 28 0 6 7 6 19 0 13 -7 24 -6 37 4 17 12 19 11 22 -7 2 -11 1 -22
-2 -25z m-826 -68 c0 -40 -104 -102 -259 -154 -69 -24 -84 -22 -57 8 17 19
287 161 306 161 5 0 10 -7 10 -15z m-111 -211 c-18 -20 -53 -47 -77 -61 -41
-24 -210 -83 -239 -83 -25 0 -1 27 54 60 57 35 256 119 282 120 9 0 1 -14 -20
-36z m-79 -169 c-25 -30 -171 -94 -263 -115 -125 -29 -144 -25 -90 18 34 26
68 39 183 67 78 20 150 39 159 44 21 12 27 5 11 -14z m-166 -196 c-10 -12 -40
-32 -66 -45 -51 -26 -261 -88 -279 -82 -25 8 62 77 123 97 70 23 180 48 217
50 24 1 24 1 5 -20z m2586 -309 c22 -22 26 -51 10 -80 -21 -40 -327 -137 -505
-159 -90 -12 -296 -27 -492 -36 l-132 -7 -16 59 c-9 32 -22 77 -29 101 l-14
43 67 -8 c36 -4 145 -8 241 -7 158 1 199 5 420 43 135 23 272 48 305 55 88 20
122 19 145 -4z m-2705 -4 c19 -8 62 -44 95 -80 78 -82 153 -132 260 -172 164
-61 422 -77 577 -36 97 26 93 26 93 8 0 -19 -76 -166 -95 -186 -13 -12 -15 -7
-15 48 0 54 -2 62 -19 62 -48 0 -51 -6 -51 -115 0 -88 -3 -106 -21 -129 -19
-24 -48 -38 -35 -17 7 10 -10 199 -19 223 -6 16 -65 31 -77 19 -4 -3 0 -35 7
-71 19 -85 20 -274 2 -288 -10 -9 -15 12 -25 104 -7 70 -23 148 -40 197 -26
80 -28 82 -69 97 -23 8 -44 12 -47 9 -3 -2 10 -43 29 -89 63 -156 69 -290 20
-398 -28 -61 -42 -64 -26 -5 20 71 13 212 -14 309 -38 129 -64 184 -93 195
-43 17 -45 -2 -12 -112 35 -115 48 -260 32 -339 l-10 -45 -1 70 c-1 53 -11 99
-42 192 -22 68 -44 123 -49 123 -4 0 -10 -57 -13 -127 -5 -138 -16 -188 -48
-225 l-21 -23 7 25 c3 14 8 58 12 99 6 73 6 73 -15 62 -12 -7 -22 -18 -22 -26
0 -24 -44 -65 -77 -71 -27 -5 -37 -1 -64 25 -30 30 -31 35 -25 82 8 57 -3 62
-37 18 -27 -38 -32 -98 -12 -159 9 -28 15 -54 12 -56 -9 -9 -55 78 -68 127
-11 41 -10 59 14 160 27 114 34 193 19 203 -9 6 -84 -146 -103 -209 -15 -48
-14 -236 0 -284 16 -53 4 -50 -20 5 -55 123 -63 249 -27 396 11 49 18 91 14
96 -13 13 -56 -51 -75 -113 -10 -33 -24 -93 -31 -132 -19 -106 -33 -91 -28 30
3 73 11 119 27 162 12 33 25 72 28 86 5 24 2 26 -42 33 -27 3 -80 6 -119 6
l-71 0 -18 84 c-9 46 -17 90 -17 98 0 12 110 39 260 61 64 10 173 6 205 -7z
m-1147 -42 c27 -6 32 -12 41 -56 6 -27 11 -76 11 -109 l0 -61 -27 6 c-16 3
-64 10 -108 16 -107 16 -263 48 -282 59 -13 7 -9 16 28 55 47 52 79 72 136 85
45 11 158 13 201 5z m176 -24 c4 -4 11 -56 14 -116 5 -99 4 -107 -12 -101 -10
4 -29 7 -42 7 -22 0 -24 4 -24 44 0 41 -14 130 -26 170 -5 16 -2 17 37 11 24
-4 48 -11 53 -15z m136 -26 c11 -28 32 -205 25 -212 -2 -2 -21 -1 -43 3 l-39
6 -6 92 c-4 51 -10 102 -13 115 -6 20 -3 22 30 22 30 0 38 -5 46 -26z m149
-31 c10 -36 30 -164 31 -190 0 -14 -30 -17 -65 -7 -18 4 -22 18 -32 103 -7 53
-15 105 -19 114 -5 14 0 17 35 17 38 0 41 -2 50 -37z m150 0 c16 -62 31 -154
31 -190 0 -33 -1 -34 -37 -31 l-38 3 -22 109 c-12 60 -24 114 -27 121 -7 19 3
25 45 25 36 0 39 -2 48 -37z m1776 -46 c-121 -268 -171 -352 -297 -502 -226
-269 -544 -525 -802 -646 -85 -39 -90 -41 -103 -23 -7 10 -13 20 -13 23 0 3
47 30 104 59 225 116 376 232 627 482 189 188 249 268 365 484 56 103 130 203
142 191 3 -3 -7 -33 -23 -68z m139 21 c-3 -63 -75 -240 -142 -347 -213 -338
-624 -730 -927 -884 -79 -40 -169 -77 -189 -77 -7 0 -18 11 -23 23 -10 22 -8
25 40 42 195 69 499 284 707 501 238 248 356 422 470 692 24 56 48 101 54 99
6 -2 10 -24 10 -49z m-29 -405 c-21 -195 -36 -243 -85 -263 -28 -11 -104 -9
-117 3 -2 3 27 50 66 104 39 54 84 124 101 156 17 31 33 57 36 57 3 0 3 -26
-1 -57z m-475 -698 c-28 -104 -60 -206 -71 -226 -18 -36 -36 -55 -44 -47 -5 5
117 392 140 443 34 78 25 15 -25 -170z m-194 -93 c-33 -135 -59 -192 -87 -192
-13 0 -19 5 -16 13 3 6 26 66 52 132 26 66 52 128 57 138 20 39 18 5 -6 -91z
m-165 -102 c-16 -44 -31 -83 -34 -87 -31 -30 -8 101 24 141 35 45 38 29 10
-54z m-347 -176 c9 -3 16 -12 16 -19 0 -25 -17 -25 -40 0 -19 20 -20 25 -8 25
9 0 23 -3 32 -6z m170 -23 c16 -1 18 -7 13 -46 -2 -26 -6 -48 -9 -50 -4 -4
-140 13 -145 19 -2 2 1 24 7 48 l11 44 52 -7 c29 -4 60 -8 71 -8z m245 -61
l31 -50 -75 0 c-73 0 -155 17 -155 32 0 5 9 8 20 8 11 0 20 5 20 10 0 6 -7 10
-15 10 -8 0 -15 6 -15 14 0 9 7 12 20 9 11 -3 20 0 20 6 0 7 22 11 59 11 l59
0 31 -50z m50 29 c-9 -17 -13 -19 -20 -8 -14 22 -11 29 11 29 18 0 19 -3 9
-21z m149 -21 c-14 -26 -33 -45 -48 -49 -29 -8 -100 -11 -100 -4 0 2 12 25 27
50 l28 45 58 0 58 0 -23 -42z m129 7 c14 -44 2 -52 -24 -17 -35 49 -36 52 -10
52 18 0 26 -8 34 -35z m-741 -33 c-12 -11 -46 12 -46 30 0 21 0 21 25 -2 14
-13 23 -25 21 -28z m677 -9 c-7 -2 -19 -2 -25 0 -7 3 -2 5 12 5 14 0 19 -2 13
-5z m-660 -80 c31 -3 57 -8 57 -10 0 -3 -20 -30 -44 -61 -25 -32 -63 -95 -86
-142 -41 -83 -42 -87 -37 -170 4 -72 14 -110 64 -250 95 -260 98 -279 98 -535
-1 -198 -3 -235 -29 -370 -34 -184 -84 -380 -126 -500 -114 -324 -291 -574
-499 -707 -25 -15 -49 -28 -54 -28 -6 0 41 53 104 118 144 149 231 270 319
447 105 211 167 420 189 644 19 185 10 585 -15 665 -13 39 -24 -4 -34 -134
-18 -236 -59 -499 -94 -610 l-14 -45 -2 115 c-1 63 -5 162 -9 220 -8 138 -19
119 -61 -110 -17 -96 -43 -222 -56 -280 -29 -124 -97 -360 -104 -360 -3 0 -5
69 -5 153 -1 164 -12 238 -65 407 -32 103 -83 199 -130 243 -54 49 -62 34 -25
-46 19 -40 47 -109 62 -153 26 -74 28 -88 27 -234 -1 -173 -16 -249 -77 -389
-44 -103 -97 -180 -192 -281 -136 -143 -206 -250 -281 -429 -24 -58 -51 -119
-59 -135 l-15 -28 27 6 c65 14 180 27 358 41 254 20 463 58 940 171 105 25
316 74 470 110 338 79 603 145 1080 269 198 52 378 97 400 100 38 6 37 5 -18
-19 -234 -101 -1086 -342 -1677 -475 -499 -112 -703 -147 -1290 -222 -419 -53
-509 -66 -534 -75 -12 -5 -16 0 -16 17 0 44 60 263 93 339 38 87 207 403 213
397 2 -2 -1 -52 -6 -111 -10 -105 -7 -142 11 -115 20 32 69 203 89 309 44 238
220 891 315 1170 136 394 313 725 558 1040 47 60 50 62 85 56 21 -3 63 -9 95
-13z m223 -27 c1 -1 7 -54 13 -119 13 -137 30 -187 77 -226 l34 -28 -29 -64
c-27 -60 -121 -408 -121 -449 0 -23 -20 -37 -30 -20 -4 6 -17 49 -30 93 -12
45 -42 130 -66 189 -57 138 -87 249 -87 321 0 50 7 72 64 187 l64 129 55 -6
c30 -3 56 -6 56 -7z m577 -276 c4 -232 8 -290 26 -372 36 -165 111 -341 206
-488 113 -175 264 -287 488 -361 50 -17 94 -34 97 -36 13 -14 -120 10 -201 36
-107 35 -206 91 -285 163 -152 139 -286 386 -357 658 -26 100 -30 138 -34 291
-4 133 -1 200 11 278 9 57 19 108 22 113 17 27 23 -31 27 -282z m-300 263 l68
-6 -7 -41 c-24 -149 -117 -247 -195 -206 -30 16 -50 65 -65 159 -8 47 -14 89
-14 94 0 9 120 9 213 0z m101 -367 c-8 -150 6 -274 51 -452 108 -421 284 -675
616 -883 137 -85 325 -155 494 -182 110 -17 119 -31 15 -24 -290 22 -503 110
-755 315 -213 174 -366 451 -447 810 -30 138 -33 401 -5 493 27 89 38 62 31
-77z m-128 -28 c-3 -18 -9 -145 -12 -283 -5 -196 -3 -281 10 -394 9 -79 16
-159 16 -177 l0 -34 -125 0 c-146 0 -133 -21 -110 170 31 250 103 615 140 708
16 38 20 42 52 42 34 0 35 -1 29 -32z m527 -117 c58 -180 141 -313 320 -511
47 -52 84 -96 82 -98 -2 -3 -23 7 -47 21 -139 81 -301 290 -369 478 -42 114
-57 229 -30 229 3 0 23 -54 44 -119z m-493 -836 c0 -13 -22 -15 -135 -15 -148
0 -188 17 -52 23 45 1 106 4 135 5 40 2 52 -1 52 -13z m-270 -411 c37 -96 -19
-425 -102 -601 -30 -63 -116 -189 -124 -181 -2 3 14 43 35 89 82 174 124 339
142 559 6 74 13 141 15 148 6 20 24 13 34 -14z m498 -73 c181 -185 375 -284
676 -345 66 -14 132 -27 146 -30 14 -3 -33 -3 -105 -1 -276 9 -493 97 -682
279 -79 76 -153 167 -153 189 0 21 32 -4 118 -92z m-296 28 c56 -111 64 -335
19 -496 -24 -84 -47 -118 -28 -40 5 23 10 119 10 212 1 158 -10 247 -40 349
-9 32 20 13 39 -25z m1488 -1059 c74 -295 111 -367 320 -619 137 -166 282
-363 333 -453 76 -134 82 -200 30 -337 l-17 -44 -190 7 c-902 31 -2656 29
-3486 -4 -123 -4 -227 -7 -231 -4 -24 14 -27 262 -4 349 19 75 102 247 202
419 82 142 215 350 229 359 5 3 86 10 179 16 669 44 1305 151 1953 327 155 43
598 187 610 199 13 12 24 -20 72 -215z m257 114 c19 -14 48 -45 65 -68 36 -48
110 -199 138 -282 23 -67 28 -194 7 -194 -27 0 -144 77 -198 130 -70 70 -105
157 -121 306 -14 130 -6 158 43 144 17 -5 47 -21 66 -36z m-3596 -685 c-123
-400 -163 -515 -209 -603 -41 -79 -38 -92 26 -114 48 -16 51 -23 21 -51 -28
-26 -68 -34 -127 -26 -45 6 -57 1 -268 -103 -269 -132 -349 -157 -511 -157
-83 0 -115 4 -125 14 -8 8 -8 11 -1 7 16 -9 162 26 263 63 138 51 445 219 547
300 97 78 143 194 218 548 78 367 86 400 98 417 13 18 147 48 160 36 4 -3 -37
-152 -92 -331z m4273 -691 c20 -23 36 -47 36 -54 0 -18 -57 -56 -77 -52 -24 4
-43 45 -43 95 0 85 19 88 84 11z"/>
<path d="M8820 13163 c-61 -10 -245 -68 -495 -156 -287 -100 -374 -129 -442
-147 -32 -8 -43 -16 -43 -30 0 -10 4 -21 9 -25 24 -14 279 62 576 173 176 66
348 130 383 142 34 13 61 28 59 33 -4 13 -15 15 -47 10z"/>
<path d="M3640 12469 c-58 -5 -276 -13 -484 -17 -287 -5 -380 -10 -383 -19 -8
-23 41 -32 222 -42 204 -10 477 0 650 24 129 18 169 29 163 48 -6 15 -38 17
-168 6z"/>
<path d="M7560 12229 c-124 -5 -342 -18 -485 -29 -610 -48 -881 -50 -1230 -10
-230 27 -652 37 -832 21 -253 -24 -591 -87 -623 -117 -12 -12 -12 -16 0 -28
13 -12 34 -11 154 9 306 53 392 60 731 59 287 -1 343 -4 540 -28 292 -37 683
-46 950 -22 696 62 879 73 1408 82 l387 7 0 27 0 27 -247 6 c-287 8 -441 7
-753 -4z"/>
<path d="M5247 11483 c-20 -32 48 -45 308 -63 532 -36 765 -79 1215 -225 218
-71 390 -115 453 -115 31 0 38 3 35 17 -2 12 -37 27 -128 54 -69 20 -237 73
-373 118 -338 110 -481 146 -713 175 -233 30 -786 57 -797 39z"/>
<path d="M7040 10460 c-135 -3 -246 -7 -248 -8 -2 -1 -2 -12 0 -24 3 -23 5
-23 223 -29 121 -4 327 -7 457 -8 l237 -1 22 31 c18 26 19 33 8 40 -15 9 -284
9 -699 -1z"/>
<path d="M5577 10433 c-14 -14 -5 -22 41 -37 77 -24 192 -44 431 -76 133 -17
262 -40 314 -56 69 -20 91 -23 100 -14 9 9 4 18 -20 39 -63 53 -169 76 -496
111 -106 11 -219 25 -252 30 -70 12 -109 13 -118 3z"/>
<path d="M5005 9323 c-16 -8 -38 -23 -49 -32 -21 -18 -50 -71 -43 -77 3 -3 28
2 55 11 70 23 88 13 30 -16 -31 -15 -48 -29 -48 -41 0 -23 4 -22 75 2 70 24
65 24 65 1 0 -11 12 -29 28 -40 l27 -22 -55 5 c-30 2 -70 8 -87 11 -44 10 -42
-4 5 -55 36 -37 43 -40 93 -40 36 0 71 8 107 25 68 31 70 58 10 109 -49 42
-42 46 18 11 37 -22 43 -23 48 -8 10 24 -73 123 -124 150 -50 27 -112 29 -155
6z"/>
</g>
</svg>
